<?xml version="1.0" encoding="UTF-8"?>
<svg width="92px" height="90px" viewBox="0 0 92 90" version="1.1" xmlns="http://www.w3.org/2000/svg" xmlns:xlink="http://www.w3.org/1999/xlink">
    <!-- Generator: Sketch 47 (45396) - http://www.bohemiancoding.com/sketch -->
    <title>compost</title>
    <desc>Created with Sketch.</desc>
    <defs></defs>
    <g id="Page-1" stroke="none" stroke-width="1" fill="none" fill-rule="evenodd">
        <g id="compost" fill-rule="nonzero" fill="#ffdc46">
            <g id="Group">
                <path d="M91.365,80.064 C91.296,79.786 91.154,79.507 90.951,79.273 L90.952,79.274 C90.87,79.177 90.781,79.103 90.689,79.031 C90.56,78.926 90.427,78.836 90.298,78.771 L90.292,78.769 C89.86,78.56 89.477,78.514 89.161,78.492 L89.157,78.492 L89.157,78.492 C89.073,78.488 88.991,78.487 88.913,78.487 C88.645,78.487 88.393,78.508 88.155,78.539 C88.13,78.543 88.106,78.548 88.081,78.553 C87.873,78.582 87.671,78.618 87.476,78.658 L87.471,78.659 C86.249,78.938 85.144,79.342 84.082,79.732 C83.431,79.97 82.792,80.207 82.165,80.403 L82.162,80.404 C81.847,80.508 81.526,80.601 81.206,80.681 C80.243,80.926 79.267,81.07 78.31,81.07 C77.964,81.07 77.621,81.05 77.283,81.011 L77.281,81.011 C75.686,80.841 74.158,80.206 72.752,79.279 C71.344,78.347 70.013,77.185 68.902,75.907 C67.795,74.62 66.867,73.16 66.228,71.621 L66.229,71.622 C65.569,70.007 65.062,68.309 64.652,66.585 C64.65,66.575 64.648,66.565 64.646,66.557 C64.519,66.013 64.408,65.461 64.298,64.91 C64.71,64.889 65.122,64.858 65.533,64.82 C65.61,64.813 65.686,64.807 65.762,64.799 C66.256,64.75 66.747,64.688 67.239,64.613 C67.334,64.599 67.428,64.585 67.524,64.568 C68.013,64.491 68.502,64.402 68.988,64.3 C69.065,64.284 69.143,64.267 69.221,64.249 C69.731,64.139 70.241,64.019 70.748,63.883 L70.75,63.882 C71.138,63.773 71.525,63.653 71.911,63.528 C73.854,62.897 75.748,62.046 77.494,60.898 C77.66,60.79 77.828,60.683 77.992,60.568 L77.991,60.569 L77.991,60.569 C77.991,60.568 77.991,60.568 77.992,60.568 L77.991,60.568 C78.162,60.45 78.324,60.326 78.489,60.204 C79.101,59.752 79.684,59.268 80.237,58.743 C80.519,58.473 80.799,58.196 81.068,57.903 C81.297,57.653 81.521,57.393 81.736,57.126 C81.738,57.124 81.741,57.123 81.743,57.12 C82.396,56.309 82.974,55.425 83.433,54.465 C84.053,53.185 84.402,51.792 84.614,50.466 L84.615,50.462 L84.761,49.473 L84.761,49.473 C84.807,49.119 84.835,48.773 84.855,48.428 C84.875,48.089 84.883,47.75 84.883,47.411 C84.883,47.062 84.872,46.712 84.851,46.362 L84.851,46.358 C84.802,45.667 84.71,44.97 84.548,44.264 L84.547,44.263 C84.382,43.561 84.148,42.834 83.724,42.12 C83.451,41.656 83.048,41.182 82.529,40.826 C82.316,40.679 82.081,40.555 81.828,40.458 C81.758,40.43 81.687,40.401 81.613,40.379 L81.613,40.379 L81.611,40.379 L81.611,40.379 L81.611,40.379 C81.611,40.378 81.611,40.378 81.609,40.378 C81.609,40.378 81.609,40.378 81.607,40.378 L81.607,40.378 L81.607,40.378 L81.607,40.378 C81.525,40.353 81.435,40.336 81.347,40.316 C81.113,40.262 80.868,40.223 80.61,40.223 L80.609,40.223 L80.609,40.223 C80.447,40.223 80.282,40.236 80.115,40.264 L80.115,40.264 L80.114,40.264 C80.113,40.264 80.113,40.264 80.111,40.264 L80.111,40.265 C79.572,40.351 79.093,40.6 78.722,40.889 L78.72,40.891 C77.991,41.474 77.586,42.162 77.251,42.781 L77.25,42.785 C77.005,43.253 76.807,43.711 76.619,44.159 C76.552,44.318 76.482,44.48 76.419,44.633 C76.36,44.777 76.3,44.918 76.242,45.054 C76.18,45.198 76.119,45.336 76.057,45.467 C75.994,45.601 75.946,45.695 75.873,45.821 L75.872,45.823 L75.641,46.229 C75.334,46.764 75.012,47.281 74.665,47.769 C74.146,48.5 73.561,49.163 72.898,49.713 C72.678,49.896 72.449,50.067 72.21,50.223 C72.134,50.274 72.062,50.316 71.987,50.36 C71.823,50.459 71.658,50.552 71.469,50.644 L71.469,50.644 L70.612,51.049 L70.612,51.049 C70.046,51.31 69.469,51.549 68.887,51.774 L68.885,51.774 C68.678,51.855 68.469,51.928 68.26,52.003 C67.297,52.343 66.311,52.611 65.3,52.798 C65.265,52.804 65.229,52.808 65.195,52.816 C64.801,52.886 64.401,52.946 63.995,53 C63.58,53.055 63.161,53.107 62.738,53.162 C62.7,52.711 62.664,52.258 62.628,51.805 C62.605,51.498 62.577,51.194 62.556,50.885 C62.514,50.322 62.476,49.758 62.439,49.194 C62.421,48.917 62.402,48.639 62.385,48.36 C62.346,47.741 62.31,47.121 62.273,46.501 C62.263,46.307 62.251,46.112 62.24,45.919 C62.135,44.047 62.036,42.171 61.926,40.291 C61.908,39.993 61.892,39.696 61.873,39.397 C61.838,38.816 61.799,38.234 61.762,37.652 C61.74,37.342 61.721,37.032 61.699,36.721 C61.644,35.948 61.585,35.176 61.52,34.403 C61.51,34.305 61.504,34.208 61.497,34.111 L61.497,34.11 C61.211,31.008 60.919,27.835 60.118,24.697 C59.979,24.152 59.829,23.607 59.657,23.064 C59.424,22.34 59.147,21.63 58.85,20.93 C58.397,19.865 57.879,18.826 57.293,17.839 C56.809,17.02 56.289,16.229 55.744,15.46 C55.465,15.068 55.187,14.696 54.915,14.332 C54.682,14.021 54.477,13.694 54.303,13.352 L54.301,13.35 C53.592,11.988 53.405,10.315 53.317,8.531 L53.286,7.86 L53.286,7.86 L53.286,7.862 C53.278,7.682 53.275,7.497 53.275,7.307 L53.275,7.23 L53.275,7.232 L53.294,5.871 L53.294,5.867 C53.294,5.807 53.294,5.746 53.294,5.686 C53.294,4.798 53.276,3.846 52.986,2.8 L52.985,2.796 L52.939,2.63 L52.939,2.627 L52.896,2.5 L52.894,2.491 L52.85,2.377 L52.85,2.377 C52.787,2.203 52.705,2.052 52.635,1.914 L52.631,1.906 L52.628,1.9 C52.453,1.6 52.236,1.321 51.984,1.08 L51.982,1.078 C51.472,0.601 50.86,0.301 50.25,0.145 L50.248,0.144 C49.855,0.048 49.46,0 49.065,0 L49.065,0 L49.065,0 C48.24,0 47.425,0.211 46.683,0.634 L46.68,0.635 C46.131,0.955 45.625,1.419 45.272,2.02 L45.272,2.02 C45.272,2.02 45.272,2.021 45.271,2.021 C45.271,2.022 45.271,2.023 45.27,2.024 L45.27,2.024 C45.182,2.17 45.102,2.348 45.035,2.519 C44.97,2.686 44.921,2.832 44.897,2.942 L44.897,2.942 C44.882,2.995 44.876,3.023 44.872,3.047 C44.871,3.05 44.87,3.055 44.869,3.058 L44.866,3.073 L44.86,3.101 L44.859,3.105 L44.836,3.219 L44.835,3.224 L44.801,3.447 L44.801,3.452 L44.801,3.454 C44.78,3.604 44.766,3.75 44.76,3.897 L44.76,3.899 C44.757,3.988 44.756,4.077 44.756,4.164 C44.756,5.186 44.952,6.078 45.123,6.914 L45.123,6.917 C45.22,7.371 45.319,7.811 45.396,8.225 C45.435,8.435 45.463,8.611 45.486,8.82 L45.486,8.818 L45.555,9.469 L45.555,9.469 C45.607,10.04 45.638,10.607 45.638,11.164 C45.638,11.449 45.63,11.732 45.612,12.013 L45.612,12.015 C45.522,13.667 45.032,15.219 44.21,16.701 L44.209,16.703 C44.006,17.074 43.786,17.445 43.554,17.81 L43.553,17.811 C43.34,18.153 43.056,18.554 42.797,19.002 L42.797,19 C42.285,19.871 41.892,20.78 41.562,21.684 C41.231,22.59 40.966,23.495 40.714,24.381 L40.713,24.383 L39.976,27.033 L39.976,27.036 C39.498,28.827 39.083,30.649 38.782,32.499 C38.473,34.355 38.311,36.22 38.183,38.053 C38.056,39.896 37.98,41.74 37.952,43.587 L37.952,43.585 C37.941,44.043 37.937,44.505 37.937,44.967 C37.937,44.968 37.937,44.968 37.937,44.969 L37.937,44.969 C37.937,45.054 37.939,45.138 37.939,45.222 C37.942,46.444 37.967,47.661 37.967,48.83 C37.967,48.908 37.967,48.988 37.967,49.066 L37.967,49.064 C37.95,50.839 37.821,52.585 37.468,54.263 C37.346,54.849 37.186,55.424 37.008,55.992 C36.931,56.237 36.859,56.485 36.771,56.728 L36.771,56.729 L36.771,56.73 C36.493,57.515 36.106,58.311 35.728,59.153 L35.729,59.151 C34.98,60.792 34.211,62.382 33.248,63.777 C32.595,64.724 31.856,65.556 31.004,66.199 C30.601,66.504 30.173,66.768 29.714,66.974 C26.51,68.408 23.1,69.523 19.686,69.574 L19.685,69.574 C19.559,69.576 19.433,69.577 19.307,69.577 C17.724,69.577 16.14,69.365 14.584,68.978 L14.583,68.976 C14.164,68.874 13.746,68.757 13.329,68.631 C12.958,68.517 12.596,68.397 12.211,68.261 C12.167,68.245 12.125,68.232 12.08,68.216 L12.08,68.216 L12.076,68.214 L12.074,68.214 C11.506,68.036 10.857,67.526 10.198,66.96 L10.198,66.962 C9.667,66.503 9.129,66 8.572,65.493 C8.441,65.374 8.315,65.257 8.181,65.137 L8.179,65.136 C7.472,64.521 6.732,63.866 5.741,63.34 L5.736,63.337 L5.73,63.336 C5.674,63.309 5.613,63.282 5.555,63.254 C5.101,63.041 4.574,62.838 3.863,62.839 L3.859,62.839 C3.859,62.839 3.859,62.839 3.858,62.839 L3.853,62.839 L3.817,62.84 L3.815,62.84 L3.815,62.84 L3.815,62.84 C3.733,62.842 3.648,62.858 3.565,62.865 C3.481,62.875 3.398,62.877 3.314,62.892 C3.282,62.896 3.25,62.91 3.218,62.915 C2.743,63.014 2.264,63.208 1.851,63.525 L1.851,63.524 C1.851,63.525 1.851,63.525 1.85,63.525 L1.851,63.524 C1.263,63.97 0.845,64.619 0.673,65.316 L0.673,65.316 L0.673,65.317 L0.673,65.317 C0.673,65.318 0.673,65.321 0.672,65.321 C0.672,65.323 0.672,65.323 0.671,65.325 L0.671,65.325 C0.622,65.505 0.599,65.673 0.579,65.846 L0.578,65.854 L0.564,66.139 L0.563,66.148 L0.567,66.338 L0.567,66.342 L0.567,66.346 C0.588,66.739 0.66,67.039 0.739,67.317 L0.739,67.319 L0.74,67.325 C1.078,68.4 1.57,69.248 2.066,70.07 L2.067,70.071 C2.573,70.891 3.118,71.667 3.689,72.421 C4.262,73.176 4.864,73.903 5.512,74.617 C5.842,74.977 6.19,75.334 6.586,75.677 C6.968,76.008 7.36,76.31 7.758,76.595 C9.355,77.727 11.078,78.564 12.841,79.251 C14.598,79.933 16.438,80.476 18.296,80.821 C20.349,81.195 22.414,81.36 24.471,81.36 L24.471,81.36 L24.472,81.36 C26.151,81.36 27.825,81.25 29.483,81.053 C31.329,80.825 33.162,80.486 34.959,79.971 L34.959,79.973 L34.959,79.973 L34.959,79.973 C35.962,79.698 36.93,79.328 37.87,78.912 C38.639,78.57 39.391,78.199 40.122,77.808 L40.124,77.806 C41.372,77.125 42.581,76.355 43.702,75.468 C44.044,75.198 44.379,74.919 44.702,74.625 C44.865,74.478 45.025,74.325 45.182,74.173 C45.192,74.163 45.202,74.154 45.211,74.144 C45.223,74.132 45.234,74.121 45.246,74.109 C45.566,73.792 45.874,73.463 46.166,73.12 C46.773,72.405 47.313,71.633 47.758,70.809 C47.834,71.092 47.908,71.374 47.99,71.658 L47.99,71.66 C48.528,73.448 49.172,75.226 50.22,76.914 L50.224,76.919 C51.259,78.502 52.449,79.974 53.767,81.327 C56.408,84.024 59.544,86.265 63.028,87.816 L63.029,87.818 C64.783,88.582 66.603,89.141 68.496,89.521 L68.497,89.521 L68.498,89.523 C68.498,89.523 68.498,89.523 68.497,89.521 C69.952,89.83 71.478,90 72.998,90 L72.999,90 C73,90 73,90 73,90 C73.419,90 73.837,89.987 74.254,89.961 L74.252,89.961 L74.252,89.961 C78.148,89.736 81.767,88.397 85.156,87.027 C85.719,86.798 86.302,86.547 86.883,86.246 C87.197,86.085 87.51,85.913 87.817,85.713 L87.818,85.713 C88.034,85.57 88.251,85.42 88.462,85.252 L88.462,85.252 L88.462,85.252 C88.464,85.252 88.465,85.252 88.465,85.25 L88.465,85.25 C88.661,85.098 88.918,84.873 89.075,84.717 L89.075,84.717 L89.075,84.717 L89.075,84.717 C89.3,84.5 89.503,84.279 89.7,84.058 C89.835,83.907 89.966,83.754 90.096,83.592 L90.098,83.59 C90.328,83.302 90.547,82.983 90.754,82.643 C90.832,82.514 90.915,82.391 90.987,82.25 L90.988,82.248 C91.12,81.992 91.246,81.708 91.338,81.369 L91.339,81.364 C91.389,81.165 91.44,80.924 91.44,80.643 C91.439,80.465 91.419,80.271 91.365,80.064 Z M44.167,74.004 C42.786,75.135 41.237,76.051 39.623,76.828 C38.817,77.219 37.989,77.576 37.158,77.904 L37.159,77.904 C36.339,78.221 35.489,78.467 34.622,78.675 C32.89,79.085 31.112,79.333 29.328,79.47 C28.308,79.544 27.284,79.585 26.262,79.585 C23.711,79.585 21.17,79.339 18.724,78.776 L18.726,78.776 C15.329,77.966 12.037,76.456 9.195,74.548 L9.195,74.548 C8.487,74.06 7.889,73.565 7.323,72.944 L7.32,72.941 C6.735,72.319 6.178,71.633 5.645,70.935 C5.115,70.236 4.611,69.516 4.159,68.783 C3.713,68.058 3.298,67.288 3.095,66.624 C3.052,66.484 3.024,66.313 3.021,66.259 L3.018,66.122 L3.022,66.081 C3.031,66.017 3.04,65.958 3.045,65.946 L3.048,65.934 L3.05,65.924 C3.096,65.735 3.197,65.588 3.339,65.477 C3.486,65.369 3.66,65.301 3.921,65.291 L3.923,65.291 L3.927,65.291 C3.958,65.289 4.073,65.307 4.198,65.347 C4.324,65.385 4.471,65.446 4.603,65.516 L4.613,65.522 L4.608,65.52 C5.228,65.842 5.896,66.395 6.55,66.975 C7.209,67.559 7.869,68.194 8.592,68.82 C8.955,69.133 9.337,69.447 9.764,69.747 C9.979,69.895 10.209,70.044 10.461,70.183 C10.588,70.25 10.722,70.318 10.864,70.379 L10.864,70.379 C11.009,70.444 11.176,70.502 11.267,70.534 C11.689,70.684 12.155,70.841 12.614,70.979 C13.069,71.118 13.53,71.248 13.997,71.361 L13.996,71.361 C15.721,71.79 17.515,72.032 19.314,72.033 C19.455,72.032 19.595,72.032 19.735,72.029 C21.676,71.991 23.598,71.673 25.435,71.16 C27.282,70.645 29.014,69.977 30.759,69.195 L31.074,69.047 L31.079,69.043 L31.442,68.849 L31.446,68.847 L31.449,68.846 C31.68,68.713 31.902,68.579 32.12,68.427 L32.119,68.428 C32.552,68.133 32.954,67.805 33.329,67.456 C34.08,66.757 34.713,65.977 35.269,65.173 C36.381,63.561 37.199,61.845 37.965,60.171 L37.966,60.169 C38.333,59.347 38.749,58.499 39.082,57.565 C39.415,56.65 39.677,55.712 39.875,54.768 C40.273,52.873 40.407,50.96 40.426,49.088 L40.426,49.086 C40.426,49.012 40.426,48.939 40.426,48.864 C40.426,47.531 40.395,46.255 40.395,44.978 C40.395,44.528 40.399,44.077 40.409,43.624 L40.409,43.621 C40.436,41.817 40.511,40.017 40.635,38.219 C40.761,36.412 40.916,34.638 41.207,32.894 C41.493,31.142 41.888,29.403 42.35,27.669 L42.35,27.669 L43.079,25.047 L43.079,25.047 C43.325,24.178 43.576,23.332 43.871,22.523 C44.166,21.715 44.504,20.943 44.918,20.242 L44.919,20.239 C45.115,19.898 45.361,19.55 45.63,19.123 C45.886,18.718 46.133,18.304 46.367,17.875 C46.834,17.019 47.246,16.103 47.537,15.132 C47.834,14.163 48.003,13.157 48.064,12.164 C48.085,11.827 48.094,11.494 48.094,11.162 C48.094,10.512 48.058,9.871 47.999,9.241 L47.999,9.24 L47.925,8.535 C47.898,8.288 47.855,8.015 47.81,7.776 C47.719,7.293 47.617,6.841 47.523,6.405 C47.355,5.608 47.208,4.831 47.208,4.178 C47.208,4.12 47.209,4.063 47.212,4.007 C47.215,3.926 47.223,3.847 47.233,3.77 L47.25,3.658 L47.261,3.61 L47.267,3.582 L47.267,3.582 L47.267,3.581 C47.298,3.466 47.316,3.416 47.328,3.389 C47.338,3.364 47.359,3.327 47.392,3.258 C47.504,3.071 47.68,2.895 47.917,2.757 L47.918,2.756 C48.239,2.565 48.673,2.456 49.089,2.457 C49.279,2.457 49.466,2.479 49.638,2.524 L49.64,2.525 C49.911,2.594 50.136,2.717 50.295,2.864 C50.37,2.939 50.435,3.022 50.493,3.116 C50.524,3.181 50.547,3.224 50.552,3.244 L50.556,3.255 L50.579,3.313 L50.579,3.314 L50.581,3.319 L50.581,3.319 L50.583,3.329 L50.632,3.489 L50.632,3.489 C50.801,4.085 50.839,4.804 50.839,5.59 C50.839,6.137 50.821,6.716 50.821,7.311 C50.821,7.753 50.831,8.205 50.867,8.659 L50.867,8.659 C50.917,9.586 50.984,10.548 51.161,11.533 C51.337,12.517 51.635,13.526 52.117,14.467 C52.356,14.936 52.638,15.385 52.952,15.805 C53.227,16.171 53.495,16.53 53.744,16.882 C54.255,17.602 54.737,18.336 55.181,19.088 C56.072,20.588 56.79,22.165 57.321,23.816 C58.379,27.122 58.724,30.714 59.052,34.324 C59.673,41.535 59.767,48.853 60.568,56.189 L60.568,56.191 C60.995,59.827 61.404,63.492 62.262,67.15 C62.695,68.974 63.234,70.785 63.954,72.548 L63.954,72.551 C64.713,74.38 65.774,76.038 67.042,77.514 L67.044,77.516 C68.328,78.988 69.772,80.253 71.404,81.333 C73.036,82.414 74.962,83.237 77.01,83.454 L77.01,83.454 C77.446,83.503 77.883,83.526 78.318,83.526 C78.897,83.526 79.472,83.485 80.038,83.409 C80.529,83.345 81.028,83.253 81.495,83.141 C81.983,83.026 82.456,82.891 82.911,82.745 C84.729,82.163 86.398,81.417 87.989,81.061 C88.311,80.991 88.635,80.947 88.888,80.946 C88.864,81.003 88.838,81.062 88.807,81.124 C88.651,81.423 88.429,81.745 88.18,82.056 C87.933,82.364 87.642,82.687 87.366,82.955 L87.365,82.956 C87.189,83.128 87.118,83.181 86.942,83.323 C86.799,83.436 86.643,83.547 86.478,83.655 C85.83,84.078 85.059,84.419 84.237,84.751 C80.889,86.109 77.534,87.317 74.106,87.511 C73.731,87.533 73.36,87.544 72.989,87.544 C71.652,87.544 70.323,87.398 68.975,87.115 C67.297,86.762 65.621,86.208 64.014,85.532 L64.013,85.532 C60.785,84.204 57.773,82.285 55.213,79.866 C53.934,78.659 52.758,77.33 51.743,75.897 C50.818,74.51 50.135,72.848 49.576,71.168 C48.473,67.772 47.822,64.198 47.338,60.609 C46.865,57.015 46.586,53.389 46.454,49.757 C46.417,48.673 46.395,47.589 46.395,46.505 C46.395,45.775 46.405,45.046 46.428,44.316 L46.428,44.316 L46.675,38.848 L46.131,38.814 L45.682,44.271 L45.682,44.275 C45.557,46.107 45.511,47.941 45.505,49.773 C45.505,49.873 45.504,49.974 45.504,50.076 C45.504,53.64 45.678,57.208 46.034,60.762 C46.354,63.851 46.795,66.946 47.553,69.996 L47.553,70.01 C46.715,71.559 45.526,72.894 44.167,74.004 Z M65.438,53.863 L65.438,53.863 C66.763,53.783 68.079,53.529 69.353,53.177 C69.996,52.999 70.623,52.788 71.24,52.564 L71.249,52.562 L72.16,52.216 L72.162,52.216 C72.478,52.093 72.824,51.932 73.135,51.762 C74.405,51.072 75.431,50.058 76.287,48.997 C76.717,48.462 77.106,47.908 77.471,47.35 L77.473,47.347 L77.738,46.929 L77.739,46.928 C77.833,46.777 77.935,46.595 78.016,46.437 C78.181,46.117 78.319,45.812 78.454,45.519 C78.722,44.931 78.974,44.372 79.256,43.88 C79.529,43.394 79.859,42.963 80.138,42.768 C80.331,42.642 80.443,42.605 80.584,42.604 C80.667,42.604 80.769,42.62 80.903,42.66 L80.903,42.66 C81.169,42.742 81.423,42.96 81.656,43.356 L81.655,43.354 C82.122,44.16 82.335,45.354 82.405,46.521 C82.428,46.886 82.442,47.251 82.442,47.618 C82.442,47.847 82.437,48.077 82.426,48.306 C82.412,48.604 82.392,48.899 82.359,49.18 L82.233,50.096 L82.233,50.094 C82.06,51.301 81.768,52.422 81.298,53.479 L81.297,53.483 C80.385,55.598 78.682,57.408 76.781,58.933 C74.859,60.431 72.638,61.596 70.293,62.473 L70.291,62.473 C68.322,63.226 66.258,63.762 64.152,64.178 C63.653,61.472 63.334,58.697 63.009,55.92 L63.009,55.922 C62.936,55.246 62.872,54.569 62.81,53.893 C63.214,53.9 63.621,53.907 64.029,53.907 C64.495,53.906 64.965,53.896 65.438,53.863 Z" id="Shape"></path>
            </g>
        </g>
    </g>
</svg>
