<?xml version="1.0" encoding="UTF-8"?>
<svg width="91px" height="89px" viewBox="0 0 91 89" version="1.1" xmlns="http://www.w3.org/2000/svg" xmlns:xlink="http://www.w3.org/1999/xlink">
    <!-- Generator: Sketch 47 (45396) - http://www.bohemiancoding.com/sketch -->
    <title>recycle</title>
    <desc>Created with Sketch.</desc>
    <defs></defs>
    <g id="Page-1" stroke="none" stroke-width="1" fill="none" fill-rule="evenodd">
        <g id="recycle" fill-rule="nonzero" fill="#26a5ed">
            <g id="Group">
                <path d="M15.8322542,65.67494 C15.9086331,65.5549161 15.9741007,65.4458034 16.0504796,65.3257794 C16.1268585,65.1948441 16.2141487,65.0748201 16.3014388,64.9438849 C16.6396882,64.4419664 16.9779376,63.9291367 17.3380096,63.3944844 C17.6980815,62.8598321 18.0690647,62.3142686 18.4509592,61.7468825 C19.2147482,60.6121103 20.0221823,59.4227818 20.8623501,58.1788969 C21.2769784,57.5460432 21.702518,56.9022782 22.1389688,56.2476019 C22.5645084,55.5929257 23.0009592,54.9273381 23.4483213,54.2399281 C23.8956835,53.5634293 24.3321343,52.8651079 24.7904077,52.1558753 C25.2377698,51.4466427 25.7069544,50.7374101 26.1543165,50.0063549 C26.5798561,49.3298561 27.0053957,48.642446 27.4418465,47.9441247 C27.9983213,48.2714628 28.5547962,48.6097122 29.1221823,48.9479616 C29.3185851,49.0679856 29.514988,49.1880096 29.7223022,49.3080336 L30.0278177,49.4826139 L30.0605516,49.5044365 C30.0714628,49.5044365 30.0714628,49.5153477 30.0823741,49.5153477 C30.0714628,49.5153477 30.0714628,49.5044365 30.0714628,49.5044365 C30.0496403,49.4935252 30.0605516,49.4935252 30.0605516,49.4935252 C30.0605516,49.4935252 30.0823741,49.5044365 30.0823741,49.5153477 L30.1369305,49.5589928 C30.2351319,49.6244604 30.3660671,49.7444844 30.6388489,49.9081535 C30.7697842,49.9845324 30.9770983,50.0936451 31.2498801,50.170024 C31.5553957,50.2464029 31.9809353,50.3009592 32.4392086,50.170024 C32.5592326,50.1372902 32.7229017,50.0718225 32.8538369,50.0063549 C33.0065947,49.929976 33.13753,49.8317746 33.1047962,49.8535971 L33.13753,49.8317746 C33.4430456,49.5917266 33.3557554,49.646283 33.4757794,49.526259 C33.6176259,49.3735012 33.7485612,49.1661871 33.8467626,48.9588729 C33.9340528,48.76247 33.9995204,48.5224221 34.0213429,48.3478417 C34.0322542,48.2605516 34.0431655,48.1405276 34.0431655,48.07506 C34.0431655,47.9986811 34.0431655,47.9223022 34.0322542,47.8459233 C34.0213429,47.7586331 34.0213429,47.7258993 34.0104317,47.6604317 C33.9995204,47.6058753 33.9886091,47.5294964 33.9776978,47.4967626 C33.9558753,47.4094724 33.9231415,47.3003597 33.9013189,47.2458034 L33.8576739,47.1366906 L33.82494,47.0494005 C33.7267386,46.8311751 33.6503597,46.6893285 33.6067146,46.6020384 L33.5848921,46.5583933 C33.5848921,46.5583933 33.5848921,46.5693046 33.5848921,46.5693046 C33.5848921,46.5802158 33.5848921,46.5802158 33.5848921,46.5583933 L33.5630695,46.5147482 C33.5848921,46.5802158 33.5630695,46.5038369 33.5630695,46.5147482 L33.5303357,46.4383693 C33.4430456,46.2201439 33.3448441,46.0019185 33.257554,45.783693 C33.0720624,45.3472422 32.8865707,44.9107914 32.7010791,44.4743405 C32.3300959,43.6014388 31.9482014,42.7067146 31.5772182,41.8229017 C30.8134293,40.0443645 30.0496403,38.2440048 29.27494,36.4327338 C28.4893285,34.6105516 27.6818945,32.7992806 26.8308153,30.9880096 L26.6671463,30.6497602 C26.6016787,30.5188249 26.536211,30.3333333 26.3507194,30.0823741 C26.2634293,29.9514388 26.1434053,29.8095923 25.9688249,29.6786571 C25.8051559,29.5477218 25.5978417,29.4276978 25.3905276,29.3622302 C25.2923261,29.3294964 25.1832134,29.3076739 25.0959233,29.2967626 C25.0086331,29.2858513 24.9104317,29.27494 24.8013189,29.27494 C24.7576739,29.27494 24.681295,29.27494 24.6594724,29.27494 L24.6158273,29.2858513 C24.6485612,29.2858513 24.5285372,29.2967626 24.5176259,29.2967626 L24.4739808,29.3076739 C23.9829736,29.3840528 23.4810552,29.4604317 22.990048,29.5477218 C21.9971223,29.7113909 21.0151079,29.87506 20.0221823,30.038729 C19.0292566,30.2023981 18.0363309,30.3551559 17.0543165,30.5188249 C16.0613909,30.6715827 15.0793765,30.8243405 14.0864508,30.9661871 C12.1115108,31.2498801 10.1365707,31.4899281 8.17254197,31.6972422 C7.68153477,31.7517986 7.19052758,31.8063549 6.69952038,31.85 L6.51402878,31.8718225 C6.47038369,31.8718225 6.3940048,31.8827338 6.29580336,31.8936451 C6.19760192,31.9154676 6.06666667,31.9263789 5.9029976,32.0464029 C5.82661871,32.1009592 5.73932854,32.1773381 5.68477218,32.2755396 C5.65203837,32.3191847 5.63021583,32.3628297 5.60839329,32.4282974 C5.58657074,32.5046763 5.57565947,32.5264988 5.57565947,32.5374101 C5.57565947,32.5264988 5.55383693,32.6683453 5.55383693,32.6792566 C5.55383693,32.7229017 5.55383693,32.777458 5.5647482,32.8320144 C5.57565947,32.9411271 5.61930456,33.0502398 5.68477218,33.13753 C5.81570743,33.3230216 5.93573141,33.3775779 6.02302158,33.4321343 C6.06666667,33.4539568 6.09940048,33.4757794 6.13213429,33.4866906 L6.16486811,33.5085132 C6.17577938,33.5194245 6.17577938,33.5194245 6.17577938,33.5194245 C6.16486811,33.5085132 6.20851319,33.541247 6.19760192,33.5303357 L6.241247,33.5521583 L6.3176259,33.6067146 C6.7322542,33.8685851 7.13597122,34.1413669 7.55059952,34.4032374 C7.75791367,34.5341727 7.96522782,34.6760192 8.17254197,34.8069544 C8.3471223,34.9160671 8.51079137,35.0142686 8.6853717,35.1233813 L8.61990408,35.232494 L8.43441247,35.5380096 C8.18345324,35.9526379 7.92158273,36.3563549 7.6706235,36.7600719 C7.15779376,37.567506 6.64496403,38.3640288 6.13213429,39.1496403 C5.61930456,39.9352518 5.10647482,40.7208633 4.60455635,41.4955635 C4.35359712,41.8883693 4.10263789,42.2702638 3.85167866,42.6521583 C3.60071942,43.044964 3.34976019,43.4377698 3.10971223,43.8414868 C2.14952038,45.4454436 1.32026379,47.1366906 0.77470024,48.9261391 C0.632853717,49.3735012 0.523741007,49.8208633 0.414628297,50.2682254 C0.360071942,50.4973621 0.316426859,50.7374101 0.272781775,50.977458 C0.229136691,51.1956835 0.207314149,51.3920863 0.174580336,51.6103118 L0.130935252,51.981295 C0.120023981,52.0904077 0.10911271,52.2104317 0.0982014388,52.3195444 C0.0763788969,52.5486811 0.0654676259,52.7778177 0.0436450839,53.0069544 C0.010911271,53.4761391 0.0327338129,53.9453237 0.0654676259,54.4145084 C0.130935252,55.363789 0.349160671,56.3239808 0.709232614,57.2077938 C0.752877698,57.3169065 0.807434053,57.4260192 0.851079137,57.5351319 L0.927458034,57.698801 C0.949280576,57.7533573 0.982014388,57.8079137 1.0147482,57.86247 C1.06930456,57.9715827 1.13477218,58.0806954 1.18932854,58.2007194 L1.34208633,58.4516787 L1.4293765,58.6044365 L1.5057554,58.7244604 L1.65851319,58.9645084 C1.75671463,59.1281775 1.85491607,59.2918465 1.95311751,59.4446043 C3.54616307,61.9978417 5.04100719,64.3110312 6.3940048,66.3514388 C7.7470024,68.3918465 8.95815348,70.1376499 9.98381295,71.5779376 C10.9985612,73.0073141 11.8278177,74.1202638 12.3952038,74.8731415 C12.5370504,75.0586331 12.6679856,75.2223022 12.7770983,75.37506 C12.8752998,75.4950839 12.9625899,75.6478417 13.0826139,75.7569544 C13.1917266,75.8769784 13.3226619,75.9315348 13.409952,75.9533573 C13.4317746,75.9642686 13.4535971,75.9642686 13.4645084,75.9642686 C13.4754197,75.9642686 13.4863309,75.9642686 13.4972422,75.9642686 C13.5081535,75.9642686 13.5190647,75.9642686 13.5190647,75.9642686 L13.6609113,75.9860911 L13.7372902,75.8442446 C13.7482014,75.8224221 13.7591127,75.8005995 13.7809353,75.7569544 C13.8136691,75.6696643 13.8245803,75.5059952 13.7809353,75.3532374 C13.7591127,75.2768585 13.7263789,75.2113909 13.7154676,75.1459233 C13.7045564,75.1131894 13.6936451,75.014988 13.6718225,74.9386091 C13.6390887,74.7640288 13.6172662,74.5676259 13.5954436,74.3384892 C13.5517986,73.8911271 13.529976,73.3346523 13.5845324,72.679976 C13.6390887,72.0252998 13.7372902,71.2724221 13.933693,70.464988 C14.1300959,69.6466427 14.413789,68.773741 14.817506,67.8571942 C15.0139089,67.3989209 15.2430456,66.9297362 15.5049161,66.4605516 C15.5594724,66.1441247 15.6904077,65.9040767 15.8322542,65.67494 Z M26.3288969,47.2785372 L26.3398082,47.2894484 L26.3288969,47.2785372 C26.3179856,47.2785372 26.3070743,47.2676259 26.3288969,47.2785372 Z M28.0856115,46.8748201 L28.0856115,46.8748201 C28.0965228,46.8748201 28.0965228,46.8748201 28.0856115,46.8748201 C28.0965228,46.8748201 28.0965228,46.8748201 28.0856115,46.8748201 Z M30.3115108,48.4460432 C30.3115108,48.4351319 30.3005995,48.4351319 30.3005995,48.4242206 C30.3005995,48.4242206 30.3005995,48.4242206 30.3005995,48.4133094 C30.3115108,48.4351319 30.3115108,48.4460432 30.3115108,48.4460432 L30.3115108,48.4460432 Z M24.7576739,31.7736211 C24.7794964,31.7627098 24.6922062,31.7736211 24.7576739,31.7736211 L24.8013189,31.7736211 C24.8122302,31.7736211 24.7685851,31.7736211 24.7576739,31.7736211 C24.7358513,31.7845324 24.7140288,31.7845324 24.6922062,31.7845324 C24.681295,31.7845324 24.6594724,31.7845324 24.6485612,31.7845324 C24.6485612,31.7845324 24.6376499,31.7845324 24.6376499,31.7845324 C24.6594724,31.7845324 24.681295,31.7845324 24.7031175,31.7845324 L24.7576739,31.7736211 Z M6.43764988,32.9083933 C6.42673861,32.9083933 6.42673861,32.9083933 6.43764988,32.9083933 L6.43764988,32.9083933 Z M14.6429257,62.9252998 C14.5665468,63.0671463 14.5010791,63.2089928 14.4247002,63.3508393 C14.3483213,63.4926859 14.2828537,63.6345324 14.2064748,63.7763789 C14.1410072,63.9182254 14.0755396,64.0491607 14.0100719,64.1910072 C13.9446043,64.343765 13.8791367,64.4856115 13.8136691,64.6383693 C13.6936451,64.9329736 13.5736211,65.2057554 13.4645084,65.4894484 C13.2571942,66.0568345 13.0717026,66.6133094 12.9189448,67.1479616 C12.6243405,68.2281775 12.4606715,69.2538369 12.4170264,70.1703837 C12.36247,71.0978417 12.3842926,71.9052758 12.4715827,72.6254197 C12.5261391,73.0618705 12.5916067,73.4546763 12.6788969,73.7929257 C12.3188249,72.9854916 11.8278177,71.9380096 11.2386091,70.6832134 C10.4748201,69.0901679 9.53645084,67.1806954 8.41258993,65.0093525 C7.28872902,62.8380096 5.99028777,60.4047962 4.52817746,57.7751799 C4.44088729,57.6115108 4.34268585,57.4478417 4.25539568,57.2841727 L4.11354916,57.0332134 L4.04808153,56.9131894 C4.04808153,56.9131894 4.01534772,56.8695444 4.04808153,56.9131894 L4.02625899,56.8804556 L3.99352518,56.814988 L3.85167866,56.5640288 L3.76438849,56.3785372 C3.75347722,56.3458034 3.73165468,56.3239808 3.72074341,56.291247 L3.67709832,56.1821343 C3.65527578,56.1057554 3.6116307,56.0402878 3.58980815,55.9639089 C3.382494,55.3856115 3.25155875,54.7745803 3.21882494,54.1089928 C3.1970024,53.7707434 3.20791367,53.432494 3.21882494,53.0724221 C3.22973621,52.8978417 3.24064748,52.7123501 3.26247002,52.5268585 C3.27338129,52.4395683 3.27338129,52.3413669 3.29520384,52.2540767 L3.32793765,52.0031175 C3.36067146,51.7958034 3.382494,51.5884892 3.41522782,51.3920863 C3.44796163,51.217506 3.46978417,51.0429257 3.51342926,50.8465228 C3.58980815,50.4646283 3.67709832,50.0827338 3.77529976,49.7008393 C4.16810552,48.1732614 4.74640288,46.6020384 5.45563549,44.9980815 C5.63021583,44.5943645 5.81570743,44.1906475 6.00119904,43.7869305 C6.19760192,43.3723022 6.3940048,42.9576739 6.5794964,42.5430456 C6.97230216,41.7028777 7.36510791,40.8627098 7.76882494,40.0007194 C8.1616307,39.1496403 8.57625899,38.2876499 8.99088729,37.4256595 C9.19820144,37.0001199 9.40551559,36.5636691 9.62374101,36.1381295 L9.78741007,35.8107914 L9.87470024,35.636211 C9.91834532,35.5489209 9.95107914,35.472542 9.98381295,35.3743405 C10.0165468,35.2761391 10.0492806,35.1561151 10.0492806,34.992446 C10.0492806,34.8396882 10.0165468,34.6432854 9.92925659,34.5014388 C9.8528777,34.3595923 9.75467626,34.2504796 9.66738609,34.1741007 C9.58009592,34.0977218 9.50371703,34.0540767 9.42733813,33.9995204 C9.20911271,33.8794964 8.99088729,33.7703837 8.77266187,33.6503597 C8.56534772,33.541247 8.35803357,33.421223 8.15071942,33.301199 C7.87793765,33.13753 7.5942446,32.9738609 7.31055156,32.8101918 C7.62697842,32.777458 7.94340528,32.7447242 8.25983213,32.7119904 C10.2238609,32.5155875 12.2097122,32.3519185 14.1955635,32.2318945 C15.1884892,32.1664269 16.1923261,32.1118705 17.1961631,32.0682254 C18.2,32.0245803 19.2038369,31.9809353 20.2076739,31.9372902 C21.2115108,31.9045564 22.2153477,31.8609113 23.2191847,31.8281775 C23.5574341,31.8172662 23.8956835,31.8063549 24.2339329,31.7845324 L24.2884892,31.9372902 C24.9213429,33.82494 25.5978417,35.7125899 26.2634293,37.5565947 C26.9399281,39.4115108 27.6164269,41.2446043 28.2820144,43.0667866 C28.4129496,43.4377698 28.5547962,43.7978417 28.6857314,44.1579137 L28.4893285,44.0378897 L28.3365707,43.9505995 L28.2601918,43.9069544 L28.1619904,43.8523981 C28.0965228,43.8196643 28.0310552,43.7869305 27.9655875,43.7541966 C27.9001199,43.7214628 27.8019185,43.688729 27.7255396,43.6559952 C27.6709832,43.6341727 27.6273381,43.6232614 27.5727818,43.6123501 C27.5182254,43.6014388 27.4745803,43.5796163 27.3982014,43.568705 C27.3327338,43.5577938 27.2672662,43.5468825 27.2017986,43.5359712 C27.1363309,43.52506 27.0490408,43.52506 26.9726619,43.52506 C26.896283,43.52506 26.8199041,43.52506 26.7326139,43.5359712 C26.6453237,43.5468825 26.5580336,43.5577938 26.4816547,43.568705 C26.132494,43.6341727 25.8160671,43.7869305 25.5978417,43.9505995 C25.5323741,43.9942446 25.4996403,44.0269784 25.4450839,44.0597122 C25.4014388,44.092446 25.3468825,44.1360911 25.3141487,44.1688249 L25.205036,44.2670264 C25.1723022,44.2997602 25.1395683,44.3434053 25.1177458,44.3652278 C25.0741007,44.4197842 25.0086331,44.4961631 24.9758993,44.5398082 C24.9431655,44.5943645 24.8995204,44.6489209 24.8667866,44.6925659 L24.7794964,44.8344125 L24.7358513,44.9107914 L24.561271,45.1944844 C24.4521583,45.379976 24.3321343,45.5763789 24.2230216,45.7618705 C23.7756595,46.5256595 23.3282974,47.2785372 22.8918465,48.0205036 C22.4553957,48.76247 22.0407674,49.5044365 21.6152278,50.2245803 C21.2005995,50.9447242 20.7859712,51.6648681 20.3931655,52.3741007 C20.0003597,53.0833333 19.607554,53.7707434 19.2256595,54.4581535 C18.843765,55.1346523 18.4727818,55.8002398 18.1127098,56.4549161 C17.3816547,57.7642686 16.6833333,59.029976 16.0286571,60.2520384 C15.7013189,60.8630695 15.3848921,61.4522782 15.0902878,62.0305755 C14.93753,62.3579137 14.7847722,62.6416067 14.6429257,62.9252998 Z M8.77266187,35.11247 C8.79448441,35.1342926 8.79448441,35.1452038 8.77266187,35.11247 L8.77266187,35.11247 Z" id="Shape"></path>
                <path d="M40.1316547,63.3181055 L40.1316547,63.1435252 C40.1316547,63.0889688 40.1316547,63.0125899 40.1207434,62.936211 L40.1098321,62.8270983 L40.0880096,62.6961631 L40.0661871,62.5652278 L40.0334532,62.41247 C39.9898082,62.2269784 39.902518,61.9760192 39.7606715,61.7141487 C39.6079137,61.4522782 39.378777,61.1904077 39.1169065,60.9940048 C38.8659472,60.8085132 38.5822542,60.6884892 38.37494,60.6230216 C38.3203837,60.6121103 38.2658273,60.5902878 38.211271,60.5793765 L38.0694245,60.5466427 C37.971223,60.5248201 37.8948441,60.5248201 37.8184652,60.5139089 C37.7420863,60.5029976 37.6547962,60.5029976 37.567506,60.5029976 L37.5020384,60.5029976 L37.4693046,60.5029976 L37.4147482,60.5029976 L37.1856115,60.5139089 C37.043765,60.5139089 36.9019185,60.5248201 36.7600719,60.5248201 C36.2035971,60.5466427 35.636211,60.557554 35.0688249,60.5793765 C34.5014388,60.601199 33.9231415,60.6230216 33.3557554,60.6448441 C33.0720624,60.6557554 32.7992806,60.6666667 32.5155875,60.6775779 C32.2209832,60.6884892 31.9372902,60.6884892 31.6426859,60.6994005 C30.4860911,60.7321343 29.3076739,60.7866906 28.1292566,60.8630695 C27.540048,60.9067146 26.9508393,60.9503597 26.3616307,60.9940048 C25.7724221,61.0376499 25.1832134,61.0922062 24.5940048,61.1358513 C24.0047962,61.1794964 23.4155875,61.2231415 22.8263789,61.2667866 L21.9425659,61.3213429 L21.5061151,61.3431655 C21.3097122,61.3431655 21.0696643,61.3758993 20.8296163,61.4741007 C20.5895683,61.5613909 20.3713429,61.72506 20.2185851,61.8996403 C20.1858513,61.9432854 20.1422062,61.9869305 20.1094724,62.0414868 C20.0767386,62.0960432 20.0767386,62.0960432 20.0330935,62.1505995 L19.9130695,62.3360911 C19.7603118,62.5870504 19.607554,62.8380096 19.4438849,63.0889688 C19.127458,63.5908873 18.8328537,64.103717 18.5273381,64.6056355 C18.2327338,65.1184652 17.9381295,65.6203837 17.6435252,66.1441247 C17.3598321,66.6569544 17.0761391,67.1806954 16.8251799,67.7153477 C16.3014388,68.7846523 15.864988,69.8976019 15.5594724,71.0651079 C15.4176259,71.6543165 15.3085132,72.2435252 15.2539568,72.8545564 C15.2430456,73.0073141 15.221223,73.1491607 15.221223,73.3128297 C15.221223,73.4764988 15.2103118,73.6292566 15.2103118,73.7820144 C15.2103118,73.9129496 15.2103118,74.0547962 15.2103118,74.1857314 L15.2103118,74.2402878 L15.2103118,74.2621103 C15.221223,74.3275779 15.2103118,74.2948441 15.2103118,74.3166667 L15.2103118,74.4257794 L15.221223,74.6440048 C15.2539568,75.2332134 15.341247,75.8442446 15.5049161,76.4552758 C15.5922062,76.7607914 15.6904077,77.066307 15.8213429,77.3609113 C15.8540767,77.4372902 15.8977218,77.5245803 15.9304556,77.6009592 L16.0286571,77.7864508 L16.0395683,77.8082734 C16.0504796,77.8300959 16.0286571,77.7973621 16.0613909,77.8519185 L16.0832134,77.8955635 L16.1377698,77.993765 L16.2468825,78.1792566 C16.8251799,79.1830935 17.5780576,80.0778177 18.4291367,80.7979616 C19.2802158,81.5181055 20.2294964,82.0418465 21.178777,82.3910072 C22.1171463,82.7401679 23.0555156,82.9256595 23.9284173,83.0129496 C24.1466427,83.0238609 24.3648681,83.0456835 24.5721823,83.0565947 C24.7904077,83.067506 24.9977218,83.067506 25.2159472,83.0784173 C25.32506,83.0784173 25.4123501,83.0784173 25.5105516,83.0784173 C25.608753,83.0784173 25.6960432,83.0784173 25.7942446,83.067506 C25.892446,83.067506 25.9906475,83.067506 26.0888489,83.0565947 C26.1870504,83.0565947 26.2743405,83.0456835 26.372542,83.0456835 C27.8564748,82.9583933 29.1221823,82.8492806 30.158753,82.7838129 C31.1953237,82.7183453 32.0136691,82.6856115 32.5592326,82.663789 C33.0829736,82.6528777 33.3775779,82.6419664 33.3994005,82.6419664 C33.4103118,82.6419664 33.4866906,82.6419664 33.6176259,82.6419664 C33.7594724,82.6419664 33.9776978,82.6419664 34.2504796,82.6528777 C34.8069544,82.6747002 35.6143885,82.7074341 36.640048,82.7947242 C36.7709832,82.8056355 36.9019185,82.8165468 37.0328537,82.827458 L37.1419664,82.8383693 C37.1856115,82.8383693 37.2292566,82.8492806 37.2729017,82.8492806 C37.3601918,82.8492806 37.4583933,82.8492806 37.5565947,82.827458 C37.6657074,82.8056355 37.7857314,82.7729017 37.9057554,82.6965228 C38.0257794,82.6201439 38.1348921,82.5110312 38.2003597,82.3910072 C38.3422062,82.1618705 38.37494,81.9327338 38.4076739,81.7472422 C38.4622302,81.4308153 38.5058753,81.1143885 38.5604317,80.7761391 C38.614988,80.4378897 38.6804556,80.0996403 38.7459233,79.7395683 C38.8768585,79.0194245 39.018705,78.2556355 39.1714628,77.4591127 C39.2369305,77.0772182 39.3133094,76.6516787 39.378777,76.2261391 C39.4442446,75.8005995 39.5097122,75.37506 39.5642686,74.9276978 C39.6842926,74.0438849 39.782494,73.1273381 39.8588729,72.1780576 C39.9243405,71.228777 39.9788969,70.2358513 40.022542,69.2320144 C40.0661871,68.2172662 40.0989209,67.1806954 40.1098321,66.1113909 C40.1207434,65.5767386 40.1207434,65.0420863 40.1207434,64.4965228 C40.1207434,64.223741 40.1207434,63.9509592 40.1098321,63.6781775 C40.1316547,63.5908873 40.1316547,63.459952 40.1316547,63.3181055 Z M37.3711031,82.0964029 C37.3383693,82.1073141 37.2947242,82.1291367 37.2401679,82.140048 C37.2183453,82.140048 37.1856115,82.1509592 37.163789,82.1509592 L37.1201439,82.1509592 L37.0655875,82.1509592 C36.9346523,82.1618705 36.7928058,82.1727818 36.6727818,82.183693 C35.636211,82.2709832 34.828777,82.303717 34.2723022,82.3146283 C33.9995204,82.3255396 33.781295,82.3255396 33.6394484,82.3255396 C33.4976019,82.3255396 33.421223,82.3255396 33.421223,82.3255396 L33.4103118,82.3255396 C33.3994005,82.3255396 33.3230216,82.3255396 33.1920863,82.3255396 C33.0502398,82.3255396 32.8429257,82.3364508 32.5592326,82.3364508 C32.0027578,82.3364508 31.1953237,82.3146283 30.1696643,82.2164269 C29.1440048,82.1182254 27.9001199,81.9109113 26.5252998,81.5508393 C26.4380096,81.5290168 26.3507194,81.5071942 26.2634293,81.4853717 L26.2306954,81.4744604 L26.2088729,81.4744604 C26.2416067,81.4744604 26.2088729,81.4744604 26.2088729,81.4744604 L26.1434053,81.4526379 L26.01247,81.4089928 C25.9251799,81.3871703 25.8269784,81.3544365 25.7396882,81.3326139 C25.6523981,81.3107914 25.5541966,81.2780576 25.4778177,81.2453237 C25.3141487,81.1907674 25.1395683,81.1252998 24.9758993,81.0707434 C24.8013189,81.0052758 24.6267386,80.9288969 24.4521583,80.8634293 C23.7538369,80.5797362 23.0773381,80.2305755 22.4226619,79.8268585 C21.1023981,79.0194245 19.9348921,77.9610312 18.9419664,76.5316547 C18.8874101,76.4443645 18.8219424,76.3679856 18.7673861,76.2806954 C18.7128297,76.1934053 18.6582734,76.1170264 18.6146283,76.0297362 C18.5164269,75.8660671 18.4291367,75.6914868 18.3418465,75.5059952 C18.1672662,75.135012 18.0254197,74.7094724 17.8944844,74.251199 L17.8508393,74.0766187 L17.8290168,73.9893285 C17.8290168,74.0002398 17.8181055,73.9456835 17.8290168,74.0002398 L17.8181055,73.9784173 L17.8071942,73.9238609 C17.7744604,73.7929257 17.7417266,73.6619904 17.7199041,73.5310552 C17.6980815,73.4219424 17.676259,73.3128297 17.6544365,73.203717 C17.6326139,73.0946043 17.6107914,72.9636691 17.5998801,72.8545564 C17.5344125,72.3744604 17.4907674,71.872542 17.4907674,71.3597122 C17.4907674,70.3340528 17.6871703,69.2756595 18.0254197,68.2390887 C18.2,67.7153477 18.4182254,67.2134293 18.6582734,66.7005995 C18.8983213,66.1986811 19.1820144,65.6967626 19.4766187,65.2166667 C19.771223,64.7256595 20.0985612,64.2564748 20.4258993,63.7763789 C20.6004796,63.5472422 20.7641487,63.3071942 20.938729,63.0780576 C21.0260192,62.9689448 21.1351319,62.8161871 21.1569544,62.8161871 C21.2115108,62.772542 21.2333333,62.772542 21.2769784,62.772542 C21.3206235,62.772542 21.3751799,62.772542 21.4733813,62.7834532 L21.9098321,62.8270983 L22.7936451,62.9252998 C23.3828537,63.0016787 23.9720624,63.0671463 24.561271,63.1435252 C25.1504796,63.2199041 25.7396882,63.296283 26.3288969,63.3726619 C26.9181055,63.4490408 27.5073141,63.5145084 28.0856115,63.5908873 C29.2531175,63.7327338 30.4206235,63.8418465 31.5881295,63.9182254 C31.8827338,63.940048 32.1664269,63.9618705 32.4610312,63.983693 C32.7556355,63.9946043 33.0611511,64.0164269 33.3557554,64.0273381 C33.9340528,64.0600719 34.5014388,64.0818945 35.0688249,64.1146283 C35.4834532,64.1364508 35.8980815,64.1582734 36.3127098,64.1800959 C36.3127098,64.2782974 36.3017986,64.3764988 36.3017986,64.4747002 C36.279976,65.0202638 36.2690647,65.5549161 36.2581535,66.0895683 C36.2363309,67.1588729 36.2363309,68.1954436 36.2581535,69.2101918 C36.2690647,70.22494 36.3017986,71.2069544 36.3345324,72.1671463 C36.3781775,73.1164269 36.4545564,74.0438849 36.5418465,74.9276978 C36.6291367,75.8224221 36.7491607,76.6516787 36.8582734,77.4809353 C36.9673861,78.2883693 37.0764988,79.0521583 37.1747002,79.7723022 C37.2292566,80.1323741 37.2619904,80.4815348 37.3056355,80.8197842 C37.3383693,81.1580336 37.3820144,81.4744604 37.4147482,81.779976 C37.4256595,81.9 37.4256595,81.9872902 37.4256595,82.020024 C37.4256595,82.0309353 37.4365707,82.0418465 37.4365707,82.0527578 C37.4256595,82.0636691 37.4038369,82.0745803 37.3711031,82.0964029 Z M37.4365707,64.2346523 C37.4256595,64.2346523 37.4038369,64.2346523 37.3929257,64.2346523 C37.3820144,64.2346523 37.3820144,64.2346523 37.3492806,64.2346523 C37.3383693,64.2346523 37.327458,64.2346523 37.3165468,64.223741 L37.3820144,64.223741 L37.4365707,64.223741 L37.4365707,64.2346523 L37.4365707,64.2346523 Z" id="Shape"></path>
                <path d="M89.0468825,59.7173861 C89.0468825,59.7064748 89.0359712,59.6955635 89.0359712,59.6955635 C89.02506,59.6846523 89.02506,59.673741 89.02506,59.673741 L88.9705036,59.5428058 L88.8068345,59.5428058 C88.785012,59.5428058 88.7522782,59.5428058 88.7086331,59.553717 C88.6213429,59.5646283 88.4685851,59.6410072 88.3594724,59.7501199 C88.3049161,59.8046763 88.261271,59.8701439 88.2176259,59.913789 C88.1958034,59.9356115 88.1194245,60.0010791 88.0539568,60.0556355 C87.9230216,60.1647482 87.7593525,60.2956835 87.5738609,60.4266187 C87.2028777,60.6884892 86.733693,60.9830935 86.1444844,61.2667866 C85.5552758,61.5395683 84.8569544,61.8341727 84.0495204,62.0742206 C83.2529976,62.3142686 82.3473621,62.4997602 81.3544365,62.6197842 C80.8634293,62.6852518 80.3396882,62.7070743 79.805036,62.7179856 C79.5322542,62.7288969 79.2594724,62.7288969 78.9866906,62.7179856 C78.8557554,62.7179856 78.7139089,62.7070743 78.5720624,62.7070743 C78.4193046,62.6961631 78.2665468,62.6961631 78.113789,62.6852518 C77.5136691,62.6416067 76.8917266,62.6088729 76.2588729,62.5652278 C75.6151079,62.5215827 74.9495204,62.4779376 74.2730216,62.4233813 C72.9091127,62.3251799 71.4688249,62.2269784 69.9739808,62.1178657 C69.2211031,62.0742206 68.4464029,62.0196643 67.6607914,61.9760192 C66.8751799,61.9323741 66.0786571,61.888729 65.271223,61.8450839 C64.463789,61.8014388 63.6345324,61.768705 62.8052758,61.72506 C61.9651079,61.6923261 61.12494,61.6486811 60.2629496,61.6159472 C59.4664269,61.5832134 58.6480815,61.5613909 57.8297362,61.5286571 C57.8406475,60.8848921 57.8515588,60.2302158 57.86247,59.5755396 C57.86247,59.3464029 57.8733813,59.1172662 57.8733813,58.8772182 L57.8733813,58.5280576 L57.8733813,58.4844125 C57.8733813,58.4735012 57.8733813,58.4735012 57.8733813,58.4625899 C57.8733813,58.4735012 57.8733813,58.4844125 57.8733813,58.4735012 C57.8733813,58.4953237 57.8733813,58.4953237 57.8733813,58.4953237 C57.8733813,58.4953237 57.8733813,58.4735012 57.8733813,58.4625899 L57.8842926,58.3971223 C57.8952038,58.2770983 57.9279376,58.102518 57.9279376,57.7860911 C57.9279376,57.6333333 57.9170264,57.4041966 57.8406475,57.1314149 C57.7642686,56.8258993 57.5896882,56.4330935 57.2405276,56.1057554 C57.1532374,56.0184652 57.0113909,55.9093525 56.8913669,55.8329736 C56.7495204,55.7456835 56.5967626,55.6802158 56.6404077,55.6911271 L56.5967626,55.6693046 C56.2366906,55.527458 56.3239808,55.5711031 56.1603118,55.527458 C55.9639089,55.4838129 55.7129496,55.4729017 55.4838129,55.4947242 C55.2655875,55.5165468 55.0255396,55.5820144 54.8618705,55.6583933 C54.7745803,55.6911271 54.6763789,55.7456835 54.6218225,55.7784173 C54.5563549,55.8220624 54.4908873,55.8547962 54.4254197,55.8984412 C54.359952,55.9420863 54.3272182,55.9748201 54.2726619,56.0184652 C54.2290168,56.051199 54.1744604,56.1057554 54.1417266,56.1275779 C54.076259,56.1930456 53.9998801,56.2694245 53.956235,56.3239808 L53.8798561,56.411271 L53.8252998,56.4876499 C53.6834532,56.6840528 53.6070743,56.814988 53.552518,56.9022782 L53.5197842,56.9459233 C53.5197842,56.9459233 53.5197842,56.935012 53.5306954,56.935012 C53.5306954,56.935012 53.5416067,56.9241007 53.5306954,56.9459233 L53.5088729,56.9786571 C53.552518,56.9241007 53.5088729,56.9895683 53.5088729,56.9786571 L53.4543165,57.0441247 C53.31247,57.2296163 53.1706235,57.4260192 53.028777,57.6115108 C52.7450839,57.9934053 52.4613909,58.3643885 52.1667866,58.746283 C51.5884892,59.5100719 51.0211031,60.2738609 50.4318945,61.0485612 C49.2752998,62.5979616 48.0968825,64.1582734 46.9184652,65.7404077 C45.7291367,67.322542 44.572542,68.9374101 43.4268585,70.5741007 L43.2086331,70.8796163 C43.1213429,70.9996403 43.0013189,71.1523981 42.8703837,71.4360911 C42.8049161,71.5779376 42.7394484,71.752518 42.7067146,71.9707434 C42.6739808,72.1780576 42.6739808,72.4181055 42.7285372,72.6363309 C42.7503597,72.7345324 42.7830935,72.8436451 42.8158273,72.9309353 C42.8485612,73.0182254 42.8922062,73.0946043 42.9467626,73.1928058 C42.9685851,73.2364508 43.0122302,73.2910072 43.0231415,73.3128297 L43.0558753,73.3455635 C43.044964,73.323741 43.1104317,73.4219424 43.1104317,73.4219424 L43.1431655,73.4546763 C43.4595923,73.847482 43.7760192,74.2293765 44.092446,74.6221823 C44.7252998,75.3968825 45.3581535,76.1715827 45.9910072,76.946283 C46.6238609,77.7209832 47.2567146,78.5065947 47.8895683,79.281295 C48.5224221,80.0559952 49.1443645,80.8416067 49.7553957,81.6272182 C50.9883693,83.1984412 52.1886091,84.7914868 53.3452038,86.3845324 C53.6398082,86.7773381 53.9235012,87.1810552 54.2071942,87.5847722 L54.316307,87.73753 C54.3381295,87.7702638 54.3817746,87.8357314 54.4472422,87.9121103 C54.5127098,87.9884892 54.5890887,88.0866906 54.7745803,88.1848921 C54.8618705,88.2285372 54.9709832,88.261271 55.0800959,88.261271 C55.1346523,88.261271 55.1892086,88.261271 55.2546763,88.2503597 C55.3419664,88.2285372 55.3528777,88.2285372 55.363789,88.2285372 C55.363789,88.2285372 55.4838129,88.1848921 55.4947242,88.1739808 C55.527458,88.1521583 55.5820144,88.1194245 55.6147482,88.0976019 C55.7020384,88.0321343 55.7784173,87.9339329 55.8220624,87.8357314 C55.9202638,87.6393285 55.9093525,87.497482 55.9093525,87.3992806 C55.9093525,87.3556355 55.9093525,87.3119904 55.8984412,87.2792566 L55.8984412,87.2356115 C55.8984412,87.2247002 55.8984412,87.213789 55.8984412,87.213789 C55.8984412,87.2247002 55.8984412,87.1701439 55.8984412,87.1919664 L55.8984412,87.1483213 L55.8984412,87.0610312 C55.9202638,86.570024 55.9529976,86.0790168 55.9748201,85.5989209 C55.9857314,85.3479616 55.9966427,85.1079137 56.007554,84.8569544 C56.0184652,84.6605516 56.0184652,84.4641487 56.0293765,84.2568345 L56.1494005,84.2568345 L56.5094724,84.2677458 C56.9895683,84.2786571 57.4696643,84.3004796 57.9497602,84.3223022 C58.8990408,84.3659472 59.8483213,84.4095923 60.7866906,84.4641487 C61.72506,84.518705 62.6634293,84.5623501 63.579976,84.6169065 C64.0382494,84.638729 64.5074341,84.6714628 64.9657074,84.6932854 C65.4348921,84.7151079 65.9040767,84.7369305 66.3732614,84.7478417 C68.2390887,84.7805755 70.1267386,84.6496403 71.9489209,84.235012 C72.4071942,84.1368106 72.8545564,84.0058753 73.2910072,83.87494 C73.5092326,83.8094724 73.7492806,83.7221823 73.9784173,83.6458034 C74.1857314,83.5694245 74.371223,83.4930456 74.5785372,83.4166667 L74.9167866,83.2748201 C75.0258993,83.2311751 75.1241007,83.1766187 75.2332134,83.1329736 C75.4405276,83.0347722 75.6478417,82.9365707 75.8551559,82.827458 C76.2697842,82.6201439 76.6735012,82.3691847 77.066307,82.1073141 C77.8519185,81.5726619 78.5829736,80.9070743 79.161271,80.1541966 C79.2376499,80.0669065 79.3031175,79.9577938 79.3685851,79.8705036 L79.4667866,79.7286571 C79.4995204,79.685012 79.5322542,79.6195444 79.564988,79.564988 C79.6304556,79.4558753 79.6959233,79.3467626 79.7613909,79.2485612 L79.9032374,78.9976019 L79.9905276,78.8448441 L80.0559952,78.7139089 L80.1869305,78.4629496 C80.2742206,78.2992806 80.3615108,78.1247002 80.4597122,77.9610312 C81.8781775,75.3095923 83.1329736,72.8545564 84.2131894,70.6613909 C85.3043165,68.4682254 86.209952,66.5369305 86.9410072,64.9438849 C87.6720624,63.3399281 88.2285372,62.0742206 88.5886091,61.2013189 C88.6758993,60.9830935 88.7631894,60.7866906 88.8286571,60.6230216 C88.8832134,60.4811751 88.9705036,60.3284173 89.0141487,60.1756595 C89.0577938,60.0229017 89.0468825,59.8810552 89.02506,59.793765 C89.0577938,59.7501199 89.0468825,59.7282974 89.0468825,59.7173861 Z M57.8079137,62.8052758 C57.8079137,62.8161871 57.8079137,62.8270983 57.8079137,62.8052758 L57.8079137,62.7943645 L57.8079137,62.8052758 Z M56.5858513,61.485012 L56.5858513,61.485012 C56.57494,61.485012 56.57494,61.485012 56.57494,61.485012 C56.57494,61.485012 56.57494,61.485012 56.5858513,61.485012 Z M56.8258993,58.7790168 C56.8258993,58.7899281 56.814988,58.7899281 56.814988,58.8008393 C56.814988,58.8008393 56.814988,58.8008393 56.8040767,58.8117506 C56.8258993,58.7790168 56.8368106,58.7681055 56.8258993,58.7790168 L56.8258993,58.7790168 Z M45.1726619,71.9270983 C45.1508393,71.9052758 45.2053957,71.9707434 45.1726619,71.9270983 L45.1508393,71.8834532 C45.1399281,71.872542 45.1726619,71.9161871 45.1726619,71.9270983 C45.1944844,71.9380096 45.2053957,71.9598321 45.216307,71.9816547 C45.2272182,71.9925659 45.2272182,72.0034772 45.2381295,72.0252998 C45.2381295,72.0252998 45.2381295,72.036211 45.2381295,72.036211 C45.2272182,72.0143885 45.216307,71.9925659 45.2053957,71.9816547 L45.1726619,71.9270983 Z M55.3201439,87.213789 C55.3201439,87.2247002 55.3201439,87.2247002 55.3201439,87.213789 L55.3201439,87.213789 Z M56.051199,84.0931655 C56.0621103,84.0604317 56.0730216,84.0495204 56.051199,84.0931655 L56.051199,84.0931655 Z M85.6316547,64.1691847 C84.638729,65.6203837 83.4494005,67.3989209 82.1291367,69.4611511 C80.8088729,71.5233813 79.3576739,73.8583933 77.8082734,76.4443645 C77.7100719,76.6080336 77.6118705,76.7717026 77.5136691,76.9353717 L77.3718225,77.1754197 L77.2954436,77.2954436 C77.2954436,77.2954436 77.2627098,77.3390887 77.2954436,77.2954436 L77.2736211,77.3281775 L77.2408873,77.3936451 L77.0881295,77.6446043 L76.9681055,77.8082734 C76.946283,77.8410072 76.9353717,77.8628297 76.9135492,77.8955635 L76.8371703,77.9828537 C76.7935252,78.0374101 76.7498801,78.1028777 76.6953237,78.1574341 C76.302518,78.6266187 75.8333333,79.041247 75.2768585,79.4013189 C74.9931655,79.5868106 74.6985612,79.7504796 74.3821343,79.9141487 C74.2184652,79.9905276 74.0657074,80.0778177 73.8911271,80.1541966 C73.8038369,80.1869305 73.727458,80.2305755 73.6401679,80.2633094 L73.4001199,80.3615108 C73.203717,80.4378897 73.0182254,80.5142686 72.8218225,80.5906475 C72.6472422,80.6561151 72.4835731,80.7215827 72.3089928,80.7761391 C71.9489209,80.8961631 71.5670264,81.0161871 71.1851319,81.1252998 C69.657554,81.5508393 68.009952,81.8345324 66.27506,82.0309353 C65.8386091,82.0745803 65.4021583,82.1182254 64.9547962,82.1618705 C64.4965228,82.2055156 64.0382494,82.2382494 63.579976,82.2818945 C62.6634293,82.3582734 61.72506,82.4455635 60.7866906,82.5219424 C59.8483213,82.6092326 58.8990408,82.6856115 57.9497602,82.7510791 C57.4696643,82.7838129 56.9895683,82.827458 56.5094724,82.8492806 L56.1494005,82.8711031 L55.9529976,82.8820144 C55.8547962,82.8929257 55.7784173,82.9038369 55.6693046,82.9256595 C55.5711031,82.947482 55.4510791,82.9802158 55.3092326,83.0565947 C55.1782974,83.1329736 55.0255396,83.2639089 54.9382494,83.4057554 C54.8509592,83.5476019 54.8073141,83.6894484 54.7854916,83.7876499 C54.7636691,83.8967626 54.7636691,83.994964 54.7527578,84.0822542 C54.7636691,84.3332134 54.7745803,84.5732614 54.7854916,84.8242206 C54.7964029,85.0642686 54.7964029,85.3043165 54.7964029,85.5443645 C54.7964029,85.8717026 54.7854916,86.1881295 54.7854916,86.5154676 C54.6,86.2535971 54.4145084,86.0026379 54.2290168,85.7407674 C53.0833333,84.1368106 51.9485612,82.5001199 50.8465228,80.8416067 C50.290048,80.0123501 49.7444844,79.1721823 49.1989209,78.3320144 C48.6642686,77.4918465 48.118705,76.6407674 47.5840528,75.7896882 C47.0494005,74.9386091 46.5147482,74.08753 45.9800959,73.2364508 C45.7946043,72.9527578 45.620024,72.6581535 45.4345324,72.3744604 L45.5436451,72.2544365 C46.8639089,70.7595923 48.1623501,69.2429257 49.4171463,67.726259 C50.6828537,66.2095923 51.9376499,64.7038369 53.1706235,63.2199041 C53.4215827,62.9143885 53.672542,62.6197842 53.9125899,62.3251799 L53.9125899,62.5434053 L53.9125899,62.7179856 L53.9125899,62.8052758 L53.9125899,62.9143885 C53.9125899,62.9907674 53.9235012,63.056235 53.9235012,63.1326139 C53.9344125,63.2089928 53.9453237,63.3071942 53.956235,63.3835731 C53.9671463,63.4381295 53.9780576,63.4926859 53.9889688,63.5363309 C53.9998801,63.5908873 54.0107914,63.6345324 54.0435252,63.7 C54.0653477,63.7654676 54.0871703,63.820024 54.1089928,63.8854916 C54.1308153,63.9509592 54.1744604,64.0273381 54.2071942,64.0928058 C54.2399281,64.1582734 54.2835731,64.223741 54.3381295,64.3001199 C54.3926859,64.3655875 54.4363309,64.4419664 54.4908873,64.5074341 C54.720024,64.7802158 55.0146283,64.9766187 55.2655875,65.0857314 C55.3310552,65.1184652 55.3747002,65.1402878 55.4401679,65.1621103 C55.4947242,65.1839329 55.5601918,65.2057554 55.6038369,65.2166667 L55.7456835,65.2603118 C55.7893285,65.271223 55.8438849,65.2821343 55.8766187,65.2930456 C55.9529976,65.3039568 56.0402878,65.3257794 56.1057554,65.3257794 C56.171223,65.3366906 56.2366906,65.3366906 56.3021583,65.3476019 L56.4658273,65.3585132 L56.5531175,65.3585132 L56.8913669,65.3694245 C57.1095923,65.3694245 57.338729,65.3803357 57.5569544,65.3803357 C58.4407674,65.391247 59.3136691,65.391247 60.1756595,65.4021583 C61.0376499,65.4130695 61.888729,65.4021583 62.7179856,65.4021583 C63.5581535,65.4021583 64.3764988,65.4021583 65.1839329,65.391247 C65.9913669,65.3803357 66.7878897,65.3694245 67.5735012,65.3694245 C68.3482014,65.3585132 69.1119904,65.3476019 69.8648681,65.3366906 C71.3706235,65.3148681 72.8109113,65.2930456 74.1857314,65.2384892 C74.8731415,65.2166667 75.5496403,65.1948441 76.2043165,65.1621103 C76.5316547,65.151199 76.8589928,65.1293765 77.1754197,65.1184652 C77.3390887,65.107554 77.4918465,65.0966427 77.6446043,65.0966427 C77.8082734,65.0857314 77.9610312,65.0748201 78.1247002,65.0639089 C78.277458,65.0529976 78.4302158,65.0420863 78.5829736,65.0311751 C78.7466427,65.0202638 78.9103118,64.9984412 79.0630695,64.98753 C79.3794964,64.9547962 79.685012,64.9111511 79.9796163,64.867506 C80.5797362,64.7693046 81.1471223,64.6492806 81.6926859,64.5074341 C82.7729017,64.2128297 83.7440048,63.8527578 84.5623501,63.4381295 C85.3916067,63.0235012 86.0899281,62.5979616 86.6573141,62.1724221 C87.0064748,61.9105516 87.3119904,61.6595923 87.5629496,61.4086331 C87.0828537,62.0960432 86.4172662,63.0344125 85.6316547,64.1691847 Z" id="Shape"></path>
                <path d="M90.8363309,49.6790168 C90.6726619,48.6860911 90.356235,47.7804556 89.9961631,46.9839329 C89.8979616,46.78753 89.8106715,46.5911271 89.71247,46.4056355 C89.6142686,46.2201439 89.5051559,46.023741 89.4069544,45.8382494 C89.3523981,45.740048 89.308753,45.6636691 89.2541966,45.5872902 C89.1996403,45.5109113 89.1559952,45.4236211 89.1014388,45.3472422 C89.0468825,45.259952 88.9923261,45.1726619 88.9486811,45.096283 C88.8941247,45.0199041 88.8504796,44.9435252 88.7959233,44.856235 C87.9775779,43.6123501 87.2465228,42.5757794 86.6791367,41.713789 C86.1008393,40.8517986 85.6643885,40.1643885 85.3697842,39.6952038 C85.0970024,39.2478417 84.9442446,38.9968825 84.9333333,38.97506 C84.9224221,38.9641487 84.8896882,38.8986811 84.8242206,38.7895683 C84.758753,38.6695444 84.6496403,38.4840528 84.518705,38.2330935 C84.2568345,37.7420863 83.87494,37.0328537 83.4494005,36.0944844 C83.3948441,35.9744604 83.3402878,35.8544365 83.2857314,35.7344125 L83.2420863,35.636211 C83.2311751,35.6034772 83.2093525,35.5598321 83.18753,35.5270983 C83.1438849,35.4507194 83.0893285,35.3743405 83.0238609,35.2870504 C82.947482,35.2106715 82.8601918,35.1233813 82.7401679,35.0579137 C82.6201439,34.992446 82.4673861,34.9597122 82.3364508,34.948801 C82.0636691,34.948801 81.8563549,35.0251799 81.6708633,35.0906475 C81.376259,35.1997602 81.0707434,35.3197842 80.7434053,35.4398082 C80.4269784,35.5598321 80.0996403,35.6798561 79.7504796,35.7998801 C79.0630695,36.0399281 78.3320144,36.3017986 77.5573141,36.5745803 C77.1863309,36.7055156 76.7826139,36.8582734 76.3898082,37.0110312 C75.9860911,37.163789 75.5823741,37.327458 75.1786571,37.4911271 C74.3603118,37.8293765 73.5092326,38.2003597 72.6472422,38.614988 C71.7852518,39.0296163 70.9123501,39.4769784 70.0067146,39.9461631 C69.1010791,40.4153477 68.1845324,40.9063549 67.2570743,41.4300959 C66.7878897,41.6919664 66.3296163,41.9538369 65.8604317,42.2266187 C65.6203837,42.357554 65.391247,42.4994005 65.151199,42.641247 C65.0311751,42.7067146 64.9111511,42.7830935 64.8020384,42.8485612 L64.6492806,42.9358513 C64.5947242,42.9685851 64.5401679,43.0013189 64.4747002,43.044964 L64.3874101,43.1104317 L64.2892086,43.1868106 L64.1910072,43.2741007 L64.0818945,43.3723022 C63.940048,43.5032374 63.7654676,43.7105516 63.6236211,43.9615108 C63.4708633,44.2233813 63.3617506,44.5616307 63.3290168,44.8780576 C63.296283,45.1944844 63.3290168,45.4890887 63.3835731,45.7073141 C63.3944844,45.7618705 63.416307,45.8273381 63.4272182,45.8709832 L63.4708633,46.0128297 C63.5035971,46.1110312 63.5363309,46.1764988 63.5690647,46.2528777 C63.6017986,46.3292566 63.6454436,46.4056355 63.6781775,46.4711031 L63.7109113,46.5256595 L63.7218225,46.547482 L63.7545564,46.5911271 L63.8745803,46.7766187 L64.0928058,47.1366906 C64.3874101,47.6167866 64.6929257,48.0968825 64.98753,48.5769784 C65.2930456,49.0570743 65.5876499,49.5480815 65.8931655,50.0390887 C66.035012,50.2791367 66.1877698,50.5082734 66.3405276,50.7483213 C66.4932854,50.9992806 66.6460432,51.2393285 66.7878897,51.4902878 C67.3880096,52.4832134 68.0317746,53.4652278 68.6864508,54.4472422 C69.0247002,54.9382494 69.3520384,55.4183453 69.6902878,55.9093525 C70.0285372,56.4003597 70.3667866,56.8804556 70.705036,57.3714628 C71.0432854,57.86247 71.3706235,58.3534772 71.7088729,58.8335731 L72.1998801,59.5755396 L72.4399281,59.9465228 C72.5381295,60.1101918 72.679976,60.3065947 72.8872902,60.4593525 C73.083693,60.6230216 73.3346523,60.7321343 73.563789,60.7757794 C73.6183453,60.7866906 73.6838129,60.7976019 73.7492806,60.7976019 C73.8147482,60.8085132 73.8147482,60.7976019 73.8911271,60.8085132 L74.1093525,60.8085132 C74.4039568,60.8194245 74.6985612,60.8194245 74.9931655,60.8303357 C75.5823741,60.8521583 76.1715827,60.8521583 76.7607914,60.8630695 C77.35,60.8630695 77.9392086,60.8630695 78.5284173,60.8521583 C79.1067146,60.841247 79.7068345,60.8194245 80.2960432,60.7757794 C81.4744604,60.6884892 82.663789,60.5248201 83.831295,60.197482 C84.4095923,60.0338129 84.9769784,59.8264988 85.5334532,59.5646283 C85.6752998,59.4991607 85.806235,59.4446043 85.9480815,59.3682254 C86.0899281,59.2918465 86.2317746,59.2154676 86.3627098,59.1390887 C86.4827338,59.0736211 86.6027578,59.0081535 86.7118705,58.9426859 L86.7555156,58.9208633 L86.7773381,58.909952 C86.8318945,58.866307 86.8100719,58.8881295 86.8209832,58.8772182 L86.9082734,58.8226619 L87.093765,58.7026379 C87.5847722,58.3752998 88.0648681,58.0043165 88.5122302,57.5569544 C88.7304556,57.3278177 88.9486811,57.0877698 89.1450839,56.8258993 C89.188729,56.7604317 89.2432854,56.6840528 89.2978417,56.6076739 L89.4178657,56.4330935 L89.428777,56.411271 C89.4396882,56.3894484 89.428777,56.4221823 89.4615108,56.3676259 L89.4942446,56.3239808 L89.548801,56.2257794 L89.6579137,56.0402878 C90.236211,55.0364508 90.6399281,53.9344125 90.8363309,52.8432854 C91.0218225,51.7521583 91,50.6610312 90.8363309,49.6790168 Z M66.9406475,44.7143885 C66.9515588,44.7252998 66.9515588,44.736211 66.96247,44.7471223 C66.9733813,44.7580336 66.9733813,44.7580336 66.9842926,44.7907674 C66.9842926,44.8016787 66.9952038,44.8125899 66.9952038,44.8235012 L66.96247,44.7689448 L66.9406475,44.7252998 L66.9406475,44.7143885 L66.9406475,44.7143885 Z M87.9557554,49.9081535 C87.9121103,51.457554 87.5847722,52.9960432 86.8428058,54.5672662 C86.7991607,54.6545564 86.7555156,54.7527578 86.7118705,54.8509592 C86.6682254,54.9382494 86.6245803,55.0255396 86.5809353,55.1128297 C86.4936451,55.2764988 86.3845324,55.4401679 86.2645084,55.6147482 C86.0244604,55.9529976 85.7298561,56.291247 85.402518,56.6294964 L85.2715827,56.7604317 L85.2061151,56.8258993 C85.2061151,56.8258993 85.1733813,56.8586331 85.2170264,56.8258993 L85.1952038,56.8477218 L85.16247,56.8804556 C85.0642686,56.9677458 84.9660671,57.0659472 84.8678657,57.1532374 L84.6169065,57.3823741 C84.5405276,57.458753 84.4314149,57.5351319 84.3441247,57.6115108 C83.9622302,57.9170264 83.5476019,58.2007194 83.1002398,58.4516787 C82.2164269,58.9535971 81.2016787,59.3245803 80.1214628,59.553717 C79.5868106,59.6628297 79.041247,59.7282974 78.4738609,59.7719424 C77.9173861,59.8046763 77.35,59.8264988 76.7826139,59.8046763 C76.2152278,59.793765 75.6369305,59.7501199 75.0586331,59.6955635 C74.77494,59.6628297 74.4803357,59.6300959 74.1966427,59.5973621 C74.0657074,59.5755396 73.8693046,59.553717 73.8583933,59.5428058 C73.8038369,59.5209832 73.7820144,59.4991607 73.7601918,59.4664269 C73.7383693,59.433693 73.7056355,59.3791367 73.6729017,59.2918465 L73.4874101,58.8881295 L73.1273381,58.0806954 C72.8982014,57.5351319 72.6690647,56.9895683 72.4290168,56.4440048 C72.1998801,55.8984412 71.9707434,55.3528777 71.7416067,54.7964029 C71.51247,54.2508393 71.2833333,53.7052758 71.0541966,53.1597122 C70.585012,52.0794964 70.0940048,51.0101918 69.5920863,49.9627098 C69.4611511,49.7008393 69.3411271,49.4389688 69.2101918,49.1770983 C69.0792566,48.9152278 68.9374101,48.642446 68.8064748,48.3805755 C68.5446043,47.8677458 68.2827338,47.3549161 68.0208633,46.8529976 C67.8353717,46.4820144 67.6389688,46.1110312 67.4534772,45.740048 C67.5407674,45.6964029 67.6280576,45.6527578 67.7153477,45.5982014 C68.1954436,45.3472422 68.6646283,45.0853717 69.1338129,44.8235012 C70.061271,44.3106715 70.9669065,43.7869305 71.8398082,43.2631894 C72.7127098,42.7394484 73.5528777,42.2266187 74.3603118,41.7247002 C75.1677458,41.2118705 75.9315348,40.6881295 76.6516787,40.1643885 C77.3827338,39.6406475 78.0483213,39.1278177 78.7029976,38.614988 C79.3467626,38.1130695 79.9577938,37.6438849 80.5360911,37.1965228 C80.8197842,36.9782974 81.1034772,36.7600719 81.376259,36.5636691 C81.6490408,36.3672662 81.9109113,36.1708633 82.1618705,35.9853717 C82.2600719,35.9089928 82.3364508,35.876259 82.3582734,35.8544365 C82.3691847,35.8435252 82.3691847,35.8435252 82.3800959,35.8326139 C82.3910072,35.8217026 82.4128297,35.8326139 82.4455635,35.8544365 C82.4782974,35.876259 82.5110312,35.9089928 82.543765,35.9417266 C82.5655875,35.9635492 82.5764988,35.9853717 82.5983213,36.0071942 L82.6201439,36.0399281 L82.6528777,36.0835731 C82.7292566,36.1926859 82.8056355,36.3017986 82.8820144,36.4109113 C83.471223,37.2619904 83.9076739,37.9494005 84.1913669,38.4185851 C84.3332134,38.6586331 84.4423261,38.8332134 84.518705,38.9641487 C84.5950839,39.0841727 84.6278177,39.1496403 84.6278177,39.1496403 L84.6278177,39.1605516 C84.638729,39.1714628 84.6714628,39.2369305 84.7369305,39.3460432 C84.8133094,39.4660671 84.9224221,39.6515588 85.0533573,39.8916067 C85.3261391,40.3717026 85.7189448,41.0809353 86.1444844,42.0193046 C86.570024,42.9576739 87.0173861,44.1360911 87.3992806,45.5109113 C87.4211031,45.5982014 87.4429257,45.6854916 87.4756595,45.7727818 L87.4865707,45.8055156 L87.4865707,45.8273381 C87.4756595,45.8055156 87.4865707,45.8273381 87.4865707,45.8273381 L87.5083933,45.8928058 L87.5411271,46.023741 C87.5629496,46.1110312 87.5847722,46.2092326 87.6065947,46.2965228 C87.6284173,46.3838129 87.6502398,46.4820144 87.6720624,46.5693046 C87.7047962,46.7438849 87.73753,46.9184652 87.7702638,47.0930456 C87.7920863,47.2785372 87.8248201,47.4640288 87.8466427,47.6495204 C87.9448441,48.3696643 87.9775779,49.1334532 87.9557554,49.9081535 Z" id="Shape"></path>
                <path d="M37.7748201,2.13860911 C37.8293765,2.21498801 37.971223,2.30227818 38.1239808,2.33501199 C38.2003597,2.35683453 38.2767386,2.3677458 38.331295,2.37865707 C38.3640288,2.38956835 38.4513189,2.42230216 38.5386091,2.4441247 C38.7022782,2.49868106 38.8877698,2.57505995 39.0950839,2.67326139 C39.5097122,2.858753 40.0007194,3.1206235 40.5353717,3.49160671 C41.070024,3.86258993 41.6701439,4.33177458 42.2811751,4.89916067 C42.8922062,5.47745803 43.5032374,6.16486811 44.1033573,6.96139089 C44.3979616,7.36510791 44.6925659,7.79064748 44.9653477,8.25983213 C45.1071942,8.48896882 45.2490408,8.72901679 45.379976,8.96906475 C45.4454436,9.08908873 45.5109113,9.20911271 45.5763789,9.32913669 C45.6418465,9.46007194 45.7182254,9.60191847 45.783693,9.73285372 C46.0455635,10.267506 46.3292566,10.8239808 46.6129496,11.4022782 C46.8966427,11.9805755 47.191247,12.5806954 47.4858513,13.1917266 C48.0859712,14.4247002 48.7188249,15.7122302 49.3735012,17.0652278 C49.7117506,17.7417266 50.05,18.4291367 50.4100719,19.1383693 C50.7592326,19.8366906 51.1302158,20.5459233 51.4902878,21.2660671 C51.8503597,21.986211 52.2322542,22.7172662 52.62506,23.4592326 C53.0069544,24.201199 53.3997602,24.9540767 53.8034772,25.7178657 C54.1853717,26.4270983 54.5563549,27.1472422 54.9491607,27.8673861 C54.3817746,28.1838129 53.8143885,28.5002398 53.2470024,28.8166667 C53.0505995,28.9257794 52.8432854,29.0458034 52.6468825,29.1549161 L52.3413669,29.3294964 L52.3086331,29.3513189 C52.2977218,29.3513189 52.2977218,29.3622302 52.2868106,29.3622302 C52.2977218,29.3622302 52.2977218,29.3513189 52.2977218,29.3513189 C52.3195444,29.3404077 52.3086331,29.3404077 52.3195444,29.3404077 C52.3195444,29.3404077 52.2977218,29.3513189 52.2868106,29.3513189 L52.2213429,29.3731415 C52.1122302,29.4167866 51.9485612,29.4822542 51.6648681,29.635012 C51.5339329,29.7113909 51.33753,29.8314149 51.1411271,30.038729 C50.9229017,30.2569544 50.6610312,30.6061151 50.5519185,31.0643885 C50.5191847,31.1844125 50.4973621,31.3589928 50.4864508,31.5117506 C50.4755396,31.6863309 50.4973621,31.8390887 50.4973621,31.8063549 L50.4973621,31.85 C50.5519185,32.2318945 50.5519185,32.133693 50.5955635,32.2973621 C50.6501199,32.493765 50.7701439,32.7119904 50.9010791,32.897482 C51.0320144,33.0720624 51.2065947,33.2466427 51.3484412,33.3557554 C51.4248201,33.4103118 51.5121103,33.4757794 51.5775779,33.5085132 C51.6430456,33.541247 51.7085132,33.5848921 51.7848921,33.6176259 C51.861271,33.6503597 51.9049161,33.661271 51.9594724,33.6940048 C52.0140288,33.7158273 52.0794964,33.7376499 52.1231415,33.7485612 C52.2104317,33.7703837 52.3195444,33.8031175 52.385012,33.8140288 L52.4941247,33.8358513 L52.5923261,33.8467626 C52.8323741,33.8794964 52.9851319,33.8794964 53.0833333,33.8794964 L53.1378897,33.8794964 C53.1378897,33.8794964 53.1269784,33.8794964 53.1269784,33.8794964 C53.1160671,33.8794964 53.1160671,33.8794964 53.1378897,33.8794964 L53.1815348,33.8794964 C53.1160671,33.8685851 53.192446,33.8794964 53.1815348,33.8794964 L53.2688249,33.8904077 C53.4979616,33.9231415 53.7380096,33.944964 53.9671463,33.9776978 C54.4363309,34.0322542 54.9055156,34.0977218 55.3856115,34.1522782 C56.3348921,34.2723022 57.2841727,34.3814149 58.2443645,34.5014388 C60.1647482,34.7305755 62.1069544,34.9706235 64.0709832,35.1997602 C66.035012,35.4288969 68.009952,35.6252998 70.0067146,35.8107914 L70.3886091,35.8435252 C70.5304556,35.8544365 70.7268585,35.8871703 71.0432854,35.8544365 C71.1960432,35.8435252 71.3815348,35.8107914 71.5888489,35.7344125 C71.7852518,35.6580336 71.9925659,35.5380096 72.156235,35.3852518 C72.2326139,35.3197842 72.3089928,35.232494 72.3635492,35.1670264 C72.4181055,35.0906475 72.4726619,35.0142686 72.5272182,34.9269784 C72.5490408,34.8833333 72.5817746,34.8178657 72.5926859,34.8069544 L72.6145084,34.7633094 C72.6035971,34.7851319 72.6472422,34.6760192 72.6581535,34.6760192 L72.679976,34.6323741 C72.8545564,34.1631894 73.040048,33.6940048 73.2146283,33.2248201 C73.563789,32.2864508 73.9238609,31.3480815 74.2730216,30.4097122 C74.6330935,29.4713429 74.9822542,28.5329736 75.3423261,27.5946043 C75.7023981,26.656235 76.0733813,25.728777 76.4443645,24.8013189 C77.1863309,22.9464029 77.9719424,21.1133094 78.7684652,19.3129496 C78.9648681,18.8655875 79.161271,18.4073141 79.3685851,17.9708633 L79.444964,17.8071942 C79.4667866,17.7635492 79.4995204,17.6980815 79.5322542,17.6107914 C79.564988,17.5125899 79.6086331,17.3925659 79.5977218,17.1961631 C79.5977218,17.0979616 79.564988,16.9888489 79.5104317,16.8906475 C79.4886091,16.8470024 79.4558753,16.8033573 79.4122302,16.748801 C79.3576739,16.6833333 79.3358513,16.6724221 79.3358513,16.6724221 C79.3467626,16.6724221 79.2376499,16.5851319 79.2267386,16.5851319 C79.1940048,16.5633094 79.1394484,16.5414868 79.0958034,16.5196643 C78.9976019,16.4760192 78.8775779,16.4651079 78.7684652,16.4651079 C78.5502398,16.4869305 78.4302158,16.5633094 78.3429257,16.6069544 C78.2992806,16.628777 78.2665468,16.6505995 78.2447242,16.6724221 L78.2119904,16.6942446 C78.2010791,16.7051559 78.2010791,16.7051559 78.2010791,16.7051559 C78.2119904,16.7051559 78.1683453,16.7269784 78.1792566,16.7160671 L78.1356115,16.7378897 L78.0592326,16.7815348 C77.6227818,16.9997602 77.1863309,17.2288969 76.7498801,17.4471223 C76.5316547,17.556235 76.3134293,17.676259 76.0952038,17.7853717 C75.9206235,17.8835731 75.7460432,17.9708633 75.5714628,18.0690647 L75.5169065,17.959952 L75.3423261,17.6435252 C75.1131894,17.2179856 74.894964,16.792446 74.6658273,16.3778177 C74.2184652,15.5267386 73.7929257,14.6865707 73.3673861,13.8464029 C72.9418465,13.006235 72.516307,12.1769784 72.1016787,11.3477218 C71.8943645,10.9330935 71.6870504,10.5184652 71.4797362,10.1147482 C71.2724221,9.7001199 71.0541966,9.28549161 70.82506,8.87086331 C69.9194245,7.23417266 68.8610312,5.66294964 67.5953237,4.29904077 C67.2788969,3.9498801 66.9515588,3.63345324 66.6133094,3.31702638 C66.438729,3.15335731 66.2532374,3.00059952 66.0786571,2.83693046 C65.9040767,2.69508393 65.7513189,2.56414868 65.5876499,2.43321343 L65.2930456,2.21498801 C65.2057554,2.14952038 65.107554,2.08405276 65.0093525,2.00767386 C64.8238609,1.87673861 64.627458,1.74580336 64.4310552,1.61486811 C64.0382494,1.36390887 63.6236211,1.13477218 63.1980815,0.927458034 C62.3470024,0.512829736 61.4086331,0.21822542 60.4593525,0.0872901679 C60.3393285,0.0654676259 60.2193046,0.0654676259 60.1101918,0.0436450839 L59.9356115,0.021822542 C59.8810552,0.021822542 59.8046763,0.010911271 59.7501199,0.010911271 C59.6191847,0.010911271 59.4991607,-1.13686838e-13 59.3682254,-1.13686838e-13 L59.0845324,-1.13686838e-13 L58.909952,-1.13686838e-13 L58.7681055,-1.13686838e-13 L58.4844125,0.010911271 C58.2989209,0.021822542 58.102518,0.021822542 57.9170264,0.0327338129 C54.9164269,0.130935252 52.1558753,0.272781775 49.7226619,0.425539568 C47.2785372,0.578297362 45.1508393,0.752877698 43.405036,0.916546763 C41.6483213,1.08021583 40.2735012,1.24388489 39.3351319,1.3529976 C39.1059952,1.38573141 38.8986811,1.40755396 38.7131894,1.4293765 C38.5604317,1.45119904 38.3858513,1.45119904 38.2330935,1.49484412 C38.0803357,1.53848921 37.9603118,1.61486811 37.8948441,1.68033573 C37.8730216,1.691247 37.8621103,1.71306954 37.851199,1.72398082 C37.8402878,1.73489209 37.8402878,1.74580336 37.8293765,1.74580336 C37.8184652,1.75671463 37.8184652,1.7676259 37.8184652,1.7676259 L37.7311751,1.88764988 L37.807554,2.0294964 C37.7311751,2.07314149 37.7420863,2.1058753 37.7748201,2.13860911 Z M55.527458,29.0021583 C55.527458,29.0021583 55.5165468,28.991247 55.527458,29.0021583 L55.527458,29.0021583 C55.527458,29.0021583 55.527458,29.0021583 55.527458,29.0021583 Z M56.051199,27.2672662 L56.0402878,27.2781775 L56.051199,27.2672662 C56.0621103,27.2563549 56.0730216,27.2563549 56.051199,27.2672662 Z M53.0505995,30.1260192 L53.0505995,30.1260192 C53.0615108,30.1260192 53.0724221,30.1260192 53.0833333,30.1260192 C53.0833333,30.1260192 53.0942446,30.1260192 53.0942446,30.1260192 C53.0615108,30.1260192 53.0505995,30.1260192 53.0505995,30.1260192 Z M70.2685851,33.6503597 C70.2576739,33.6830935 70.3013189,33.5958034 70.2685851,33.6503597 L70.2467626,33.6830935 C70.2358513,33.7049161 70.2576739,33.661271 70.2685851,33.6503597 C70.2685851,33.6285372 70.2794964,33.6067146 70.2904077,33.5958034 C70.3013189,33.5848921 70.3013189,33.5739808 70.3122302,33.5630695 C70.3122302,33.5630695 70.3122302,33.5630695 70.3231415,33.5521583 C70.3122302,33.5739808 70.3013189,33.5958034 70.2904077,33.6176259 L70.2685851,33.6503597 Z M75.3641487,18.1454436 C75.3314149,18.1563549 75.3205036,18.1454436 75.3641487,18.1454436 L75.3641487,18.1454436 Z M43.3286571,2.48776978 C45.0853717,2.61870504 47.2130695,2.76055156 49.6571942,2.86966427 C52.1013189,2.97877698 54.8618705,3.07697842 57.86247,3.1206235 C58.0479616,3.1206235 58.2443645,3.1206235 58.4298561,3.13153477 L58.7135492,3.13153477 L58.8553957,3.13153477 C58.8553957,3.13153477 58.909952,3.13153477 58.8553957,3.13153477 L58.8881295,3.13153477 L58.9645084,3.13153477 L59.2482014,3.14244604 L59.4446043,3.16426859 C59.4773381,3.16426859 59.5100719,3.16426859 59.5428058,3.17517986 L59.6519185,3.1970024 C59.7282974,3.20791367 59.8046763,3.21882494 59.8810552,3.22973621 C60.4811751,3.33884892 61.081295,3.5352518 61.6705036,3.84076739 C61.9651079,3.99352518 62.2597122,4.16810552 62.5652278,4.36450839 C62.7179856,4.46270983 62.8707434,4.56091127 63.0125899,4.67002398 C63.0889688,4.72458034 63.1653477,4.77913669 63.2417266,4.83369305 L63.4490408,4.98645084 C63.6127098,5.11738609 63.7763789,5.24832134 63.940048,5.36834532 C64.0818945,5.4883693 64.2128297,5.59748201 64.3655875,5.717506 C64.6601918,5.96846523 64.9438849,6.241247 65.2275779,6.51402878 C66.3623501,7.61606715 67.4316547,8.90359712 68.4682254,10.3220624 C68.7300959,10.671223 68.9810552,11.031295 69.2429257,11.4022782 C69.5047962,11.7732614 69.7666667,12.1551559 70.0285372,12.5261391 C70.5631894,13.2790168 71.0978417,14.053717 71.632494,14.817506 C72.1780576,15.5922062 72.7127098,16.3669065 73.2473621,17.1634293 C73.5201439,17.556235 73.7820144,17.959952 74.0547962,18.3527578 L74.251199,18.6582734 L74.3603118,18.8219424 C74.4148681,18.8983213 74.4585132,18.963789 74.5348921,19.0401679 C74.6003597,19.1165468 74.6985612,19.2038369 74.8294964,19.2802158 C74.9604317,19.3565947 75.1459233,19.4220624 75.3095923,19.4220624 C75.4732614,19.4220624 75.6151079,19.3893285 75.7242206,19.3565947 C75.8333333,19.3238609 75.9206235,19.2802158 75.9970024,19.2365707 C76.2043165,19.1056355 76.4116307,18.9747002 76.6298561,18.843765 C76.8371703,18.723741 77.0335731,18.5928058 77.2408873,18.4727818 C77.5245803,18.3091127 77.8082734,18.1563549 78.0919664,17.9926859 C77.9610312,18.2872902 77.8300959,18.5709832 77.6991607,18.8655875 C76.8808153,20.6659472 76.0297362,22.4553957 75.1459233,24.2448441 C74.6985612,25.1395683 74.251199,26.0342926 73.7929257,26.9290168 C73.3346523,27.823741 72.8654676,28.707554 72.4071942,29.6022782 C71.9380096,30.4970024 71.4688249,31.3808153 70.9996403,32.2646283 C70.8468825,32.5701439 70.6832134,32.8647482 70.5304556,33.1702638 L70.3667866,33.13753 C68.4136691,32.7447242 66.4496403,32.3846523 64.5074341,32.0464029 C62.5652278,31.7081535 60.6339329,31.3699041 58.7244604,31.0425659 C58.3425659,30.9770983 57.9606715,30.9116307 57.578777,30.8461631 L57.7751799,30.7370504 L57.9279376,30.6497602 L58.0043165,30.6061151 L58.0916067,30.5515588 C58.1570743,30.5188249 58.2116307,30.4751799 58.2661871,30.4315348 C58.3316547,30.3878897 58.4080336,30.3224221 58.4735012,30.2678657 C58.5171463,30.2351319 58.5498801,30.1914868 58.5935252,30.158753 C58.6371703,30.1260192 58.6699041,30.0823741 58.7135492,30.0278177 C58.7571942,29.9732614 58.8008393,29.9296163 58.8444844,29.87506 C58.8881295,29.8205036 58.9317746,29.755036 58.9754197,29.6895683 C59.0190647,29.6241007 59.0517986,29.5586331 59.0954436,29.4713429 C59.1281775,29.394964 59.1609113,29.3185851 59.1936451,29.231295 C59.3136691,28.8930456 59.3354916,28.5438849 59.3136691,28.2711031 C59.3136691,28.1947242 59.3027578,28.1510791 59.2918465,28.0856115 C59.2809353,28.0310552 59.270024,27.9655875 59.2591127,27.9110312 L59.2263789,27.7691847 C59.2154676,27.7255396 59.1936451,27.6709832 59.1827338,27.6382494 C59.1609113,27.5618705 59.1281775,27.4854916 59.0954436,27.420024 C59.0736211,27.3654676 59.0408873,27.3 59.0190647,27.2454436 L58.9426859,27.1035971 L58.8990408,27.0272182 L58.7353717,26.7326139 C58.626259,26.536211 58.5171463,26.3398082 58.4080336,26.1543165 C57.9715827,25.3905276 57.5460432,24.6267386 57.1205036,23.8738609 C56.694964,23.1209832 56.2694245,22.3899281 55.8438849,21.6697842 C55.4292566,20.9496403 55.0146283,20.2294964 54.6,19.5311751 C54.1853717,18.8328537 53.7816547,18.1454436 53.3779376,17.4798561 C52.9742206,16.8142686 52.5814149,16.1595923 52.1995204,15.5158273 C51.4248201,14.2282974 50.6828537,12.9844125 49.9517986,11.8169065 C49.5917266,11.2276978 49.2316547,10.6603118 48.882494,10.1147482 C48.7079137,9.84196643 48.5333333,9.56918465 48.358753,9.29640288 C48.2714628,9.16546763 48.1841727,9.03453237 48.0968825,8.90359712 C48.0095923,8.77266187 47.9223022,8.63081535 47.835012,8.4998801 C47.7477218,8.36894484 47.6604317,8.24892086 47.5731415,8.12889688 C47.47494,7.99796163 47.3876499,7.86702638 47.2894484,7.73609113 C47.1039568,7.48513189 46.9184652,7.23417266 46.7220624,7.00503597 C46.3401679,6.53585132 45.9473621,6.09940048 45.5545564,5.70659472 C44.7580336,4.91007194 43.9615108,4.26630695 43.1868106,3.75347722 C42.4121103,3.24064748 41.7028777,2.858753 41.0372902,2.57505995 C40.6335731,2.40047962 40.2625899,2.26954436 39.9243405,2.17134293 C40.7972422,2.26954436 41.9429257,2.37865707 43.3286571,2.48776978 Z" id="Shape"></path>
                <path d="M44.1360911,20.4368106 C44.3870504,19.9021583 44.6380096,19.367506 44.8998801,18.8328537 C45.1617506,18.2982014 45.4127098,17.7635492 45.6745803,17.2288969 L46.0673861,16.4323741 L46.263789,16.0395683 C46.3510791,15.864988 46.4492806,15.6467626 46.4929257,15.3958034 C46.5365707,15.1448441 46.5038369,14.8720624 46.427458,14.6538369 C46.4056355,14.5992806 46.3838129,14.5447242 46.3619904,14.4792566 C46.3401679,14.4247002 46.3292566,14.4247002 46.2965228,14.3592326 L46.1874101,14.1628297 C46.0455635,13.9009592 45.903717,13.6390887 45.7618705,13.3772182 C45.4781775,12.8534772 45.1944844,12.3406475 44.9107914,11.8278177 C44.6161871,11.314988 44.3215827,10.8130695 44.0160671,10.3002398 C43.7105516,9.79832134 43.405036,9.29640288 43.0667866,8.80539568 C42.401199,7.82338129 41.6592326,6.88501199 40.7972422,6.03393285 C40.3607914,5.61930456 39.902518,5.2264988 39.4005995,4.87733813 C39.2696643,4.79004796 39.1605516,4.70275779 39.018705,4.61546763 C38.8877698,4.52817746 38.7459233,4.45179856 38.614988,4.36450839 C38.494964,4.29904077 38.3858513,4.22266187 38.2658273,4.15719424 L38.2221823,4.1353717 L38.2003597,4.12446043 C38.1348921,4.09172662 38.1676259,4.11354916 38.1458034,4.10263789 L38.0476019,4.04808153 L37.851199,3.9498801 C37.327458,3.68800959 36.7600719,3.4588729 36.1381295,3.29520384 C35.8326139,3.21882494 35.5161871,3.15335731 35.1888489,3.10971223 C35.11247,3.09880096 35.0142686,3.08788969 34.9269784,3.08788969 L34.7196643,3.07697842 L34.6978417,3.07697842 C34.6760192,3.07697842 34.708753,3.07697842 34.6432854,3.07697842 L34.588729,3.07697842 L34.4796163,3.07697842 L34.2613909,3.07697842 C33.1047962,3.07697842 31.9482014,3.27338129 30.9007194,3.65527578 C29.8532374,4.03717026 28.9257794,4.59364508 28.1510791,5.23741007 C27.3763789,5.88117506 26.7544365,6.60131894 26.2306954,7.31055156 C26.1106715,7.49604317 25.9906475,7.6706235 25.8706235,7.84520384 C25.7615108,8.03069544 25.6414868,8.21618705 25.5323741,8.39076739 C25.4778177,8.47805755 25.4341727,8.56534772 25.3905276,8.65263789 C25.3468825,8.73992806 25.3032374,8.81630695 25.2595923,8.90359712 C25.2159472,8.99088729 25.1613909,9.07817746 25.1177458,9.16546763 C25.0741007,9.25275779 25.0304556,9.32913669 24.9868106,9.41642686 C24.321223,10.7366906 23.7865707,11.8932854 23.3173861,12.8207434 C22.8591127,13.7591127 22.4772182,14.4683453 22.2153477,14.9593525 C21.9643885,15.4176259 21.822542,15.6794964 21.8116307,15.7013189 C21.8007194,15.7122302 21.7679856,15.7776978 21.702518,15.8868106 C21.6261391,16.0068345 21.5170264,16.1923261 21.3751799,16.4214628 C21.0805755,16.8906475 20.655036,17.5780576 20.0549161,18.4291367 C19.9785372,18.5382494 19.9021583,18.6473621 19.8257794,18.7564748 L19.7603118,18.843765 C19.7384892,18.8764988 19.7166667,18.9092326 19.6948441,18.9528777 C19.651199,19.0292566 19.607554,19.1165468 19.5748201,19.2147482 C19.5420863,19.3238609 19.5093525,19.4329736 19.5202638,19.5748201 C19.5202638,19.7166667 19.5639089,19.8585132 19.6293765,19.9785372 C19.7603118,20.2185851 19.9348921,20.3604317 20.0876499,20.4804556 C20.3386091,20.6768585 20.5895683,20.8841727 20.8514388,21.1023981 C21.1133094,21.3206235 21.3860911,21.5388489 21.6588729,21.7788969 C22.2153477,22.2480815 22.8045564,22.7609113 23.4264988,23.2846523 C23.7320144,23.5356115 24.0593525,23.8083933 24.3866906,24.0811751 C24.7140288,24.3539568 25.0631894,24.6158273 25.4123501,24.8886091 C26.1215827,25.4341727 26.8635492,25.9797362 27.6491607,26.5143885 C28.4347722,27.0490408 29.2640288,27.583693 30.1151079,28.1401679 C30.9661871,28.6857314 31.85,29.231295 32.7665468,29.7768585 C33.2248201,30.0496403 33.6830935,30.3224221 34.1631894,30.5952038 C34.4032374,30.7261391 34.6323741,30.8679856 34.8724221,30.9989209 C34.992446,31.0643885 35.11247,31.1298561 35.232494,31.1953237 L35.3852518,31.2826139 C35.4398082,31.3153477 35.5052758,31.3480815 35.5707434,31.3699041 L35.6689448,31.4135492 L35.7889688,31.4571942 L35.9089928,31.5008393 L36.0508393,31.5444844 C36.2363309,31.5990408 36.4982014,31.6535971 36.7928058,31.6535971 C37.0983213,31.6535971 37.4365707,31.5881295 37.7420863,31.4571942 C38.0366906,31.326259 38.2767386,31.1516787 38.4294964,30.9989209 C38.4731415,30.9661871 38.5167866,30.9116307 38.5495204,30.8788969 L38.6477218,30.7697842 C38.7131894,30.6934053 38.7568345,30.6388489 38.8004796,30.56247 C38.8441247,30.4970024 38.8986811,30.4206235 38.9423261,30.3551559 L38.97506,30.3005995 L38.9859712,30.278777 L39.0077938,30.2351319 L39.1169065,30.038729 L39.3133094,29.6677458 C39.5751799,29.1767386 39.8479616,28.6748201 40.1098321,28.1729017 C40.3717026,27.6709832 40.6444844,27.1690647 40.9172662,26.656235 C41.0482014,26.4052758 41.1791367,26.1652278 41.3100719,25.9142686 C41.4519185,25.6633094 41.5828537,25.4014388 41.7247002,25.1504796 C42.2811751,24.1248201 42.8158273,23.0882494 43.3395683,22.0298561 C43.6232614,21.5061151 43.8742206,20.9714628 44.1360911,20.4368106 Z M35.8326139,28.4020384 L35.8217026,28.4238609 L35.8326139,28.4020384 C35.8326139,28.4020384 35.8326139,28.3911271 35.8435252,28.3802158 C35.8544365,28.3693046 35.8544365,28.3693046 35.8653477,28.3365707 C35.876259,28.3256595 35.876259,28.3147482 35.8871703,28.3038369 L35.8544365,28.3583933 L35.8326139,28.4020384 Z M42.117506,19.2147482 C41.7574341,19.6839329 41.4082734,20.1640288 41.0482014,20.6332134 C40.3389688,21.582494 39.66247,22.5317746 39.018705,23.5028777 C38.855036,23.7429257 38.6913669,23.9829736 38.5276978,24.2230216 C38.3640288,24.4739808 38.2003597,24.72494 38.0366906,24.9758993 C37.7202638,25.4559952 37.4147482,25.9360911 37.0983213,26.4161871 C36.8691847,26.7653477 36.6509592,27.1145084 36.4218225,27.4636691 C36.3345324,27.4091127 36.2581535,27.3545564 36.1708633,27.3 C35.7125899,27.016307 35.2543165,26.7326139 34.7960432,26.4598321 C33.8794964,25.9142686 32.9847722,25.3905276 32.1009592,24.8995204 C31.2171463,24.4085132 30.3442446,23.9284173 29.5040767,23.4919664 C28.6529976,23.0446043 27.823741,22.6517986 27.0053957,22.2917266 C26.1870504,21.9207434 25.4014388,21.6043165 24.6376499,21.2878897 C23.8847722,20.9823741 23.1646283,20.6877698 22.4990408,20.414988 C22.1607914,20.2731415 21.8443645,20.1422062 21.5279376,20.011271 C21.2224221,19.8803357 20.9278177,19.7494005 20.6332134,19.6184652 C20.5241007,19.5748201 20.4477218,19.5202638 20.414988,19.5093525 C20.4040767,19.4984412 20.3931655,19.5093525 20.3822542,19.4984412 C20.3713429,19.4984412 20.3713429,19.4657074 20.3604317,19.4329736 C20.3604317,19.4002398 20.3713429,19.3565947 20.3931655,19.3020384 C20.4040767,19.2802158 20.414988,19.247482 20.4258993,19.2256595 L20.4477218,19.1820144 L20.4695444,19.127458 C20.5241007,19.0074341 20.5786571,18.8874101 20.6332134,18.7673861 C21.0696643,17.8290168 21.4515588,17.1088729 21.7243405,16.628777 C21.8552758,16.388729 21.9643885,16.2032374 22.0298561,16.0723022 C22.0953237,15.9522782 22.1389688,15.8868106 22.1389688,15.8868106 L22.1389688,15.8758993 C22.1498801,15.864988 22.1826139,15.7995204 22.2371703,15.6904077 C22.3026379,15.5703837 22.4117506,15.3739808 22.5426859,15.1448441 C22.8154676,14.6647482 23.2410072,13.9773381 23.8411271,13.1371703 C24.441247,12.2970024 25.2377698,11.3258993 26.2416067,10.3111511 C26.3070743,10.2456835 26.372542,10.1802158 26.4270983,10.1147482 L26.4489209,10.0929257 L26.4598321,10.0820144 C26.4489209,10.1038369 26.4598321,10.0820144 26.4598321,10.0820144 L26.5143885,10.0383693 L26.6125899,9.94016787 C26.6780576,9.87470024 26.7435252,9.80923261 26.8199041,9.74376499 C26.8853717,9.67829736 26.9617506,9.61282974 27.0272182,9.55827338 C27.1581535,9.44916067 27.3,9.32913669 27.4309353,9.20911271 C27.5727818,9.1 27.7255396,8.97997602 27.8673861,8.85995204 C28.4565947,8.40167866 29.111271,7.98705036 29.7877698,7.61606715 C31.1516787,6.88501199 32.6465228,6.3940048 34.3814149,6.25215827 C34.4796163,6.241247 34.588729,6.23033573 34.6869305,6.21942446 C34.7851319,6.21942446 34.8833333,6.20851319 34.9815348,6.20851319 C35.1670264,6.20851319 35.3634293,6.20851319 35.5707434,6.23033573 C35.9853717,6.26306954 36.4218225,6.35035971 36.8910072,6.47038369 L37.0655875,6.51402878 L37.1528777,6.53585132 C37.1528777,6.53585132 37.1965228,6.54676259 37.1528777,6.52494005 L37.1747002,6.53585132 L37.2183453,6.54676259 C37.3492806,6.59040767 37.4802158,6.62314149 37.6111511,6.66678657 C37.7202638,6.69952038 37.8293765,6.7322542 37.9384892,6.77589928 C38.0476019,6.80863309 38.1567146,6.86318945 38.2767386,6.90683453 C38.735012,7.09232614 39.1823741,7.29964029 39.6188249,7.56151079 C40.5026379,8.07434053 41.3318945,8.77266187 42.0520384,9.59100719 C42.4230216,10.0056355 42.7503597,10.4420863 43.0667866,10.911271 C43.3723022,11.3695444 43.6778177,11.8605516 43.9396882,12.36247 C44.21247,12.8643885 44.4634293,13.3772182 44.7034772,13.9009592 C44.8235012,14.1628297 44.9326139,14.4356115 45.0526379,14.697482 C45.1071942,14.8284173 45.1835731,15.0029976 45.1726619,15.0139089 C45.1835731,15.0793765 45.1726619,15.101199 45.1617506,15.1339329 C45.1399281,15.1666667 45.1181055,15.221223 45.0526379,15.2976019 L44.7907674,15.6576739 L44.2670264,16.3778177 C43.9069544,16.8470024 43.5577938,17.3270983 43.1977218,17.796283 C42.8485612,18.2763789 42.4775779,18.7455635 42.117506,19.2147482 Z" id="Shape"></path>
            </g>
        </g>
    </g>
</svg>
