<?xml version="1.0" encoding="UTF-8"?>
<svg width="64px" height="90px" viewBox="0 0 64 90" version="1.1" xmlns="http://www.w3.org/2000/svg" xmlns:xlink="http://www.w3.org/1999/xlink">
    <!-- Generator: Sketch 47 (45396) - http://www.bohemiancoding.com/sketch -->
    <title>trash</title>
    <desc>Created with Sketch.</desc>
    <defs></defs>
    <g id="Page-1" stroke="none" stroke-width="1" fill="none" fill-rule="evenodd">
        <g id="trash" transform="translate(-1.000000, -1.000000)" fill-rule="nonzero" fill="#735c35">
            <path d="M61.7483404,31.189766 L15.3731915,31.189766 C13.6867872,31.189766 12.3140426,32.5605745 12.3179149,34.3360426 L15.3731915,87.245766 C15.3731915,88.9321702 16.744,90.3029787 18.4304043,90.3029787 L58.6891915,90.3029787 C60.3755957,90.3029787 61.7464043,88.9321702 61.7464043,87.3348298 L64.803617,34.2489149 C64.8055532,32.5605745 63.4347447,31.189766 61.7483404,31.189766 Z M58.6911277,87.245766 L18.4284681,87.1586383 L15.3731915,34.2469787 L61.7483404,34.1579149 L58.6911277,87.245766 Z" id="Shape"></path>
            <path d="M2.01361702,22.1420426 C1.82774468,22.5021702 1.79289362,22.9223191 1.91680851,23.307617 L4.47061702,31.3175532 C4.67778723,31.9681064 5.27993617,32.3824468 5.92661702,32.3824468 C6.08151064,32.3824468 6.23834043,32.3592128 6.39129787,32.3088723 L63.7406596,14.0159362 C64.1278936,13.8920213 64.4492979,13.6209574 64.6351702,13.2608298 C64.8229787,12.9007021 64.8558936,12.4805532 64.7339149,12.0952553 L62.1781702,4.08531915 C61.9187234,3.27987234 61.0629362,2.83455319 60.2555532,3.09206383 L43.2327447,8.52302128 L41.7825532,3.97108511 C41.2810851,2.39891489 39.5269149,1.48117021 37.9392553,1.98844681 L20.4614468,7.56268085 C19.6831064,7.81051064 19.0499787,8.34682979 18.6743617,9.07289362 C18.2987447,9.79895745 18.2309787,10.6276383 18.4788085,11.4040426 L19.9309362,15.9559787 L2.90812766,21.385 C2.52089362,21.5089149 2.19948936,21.7819149 2.01361702,22.1420426 Z M38.8705532,4.90044681 L40.3226809,9.45238298 L31.5828085,12.2385319 L22.8429362,15.026617 L21.3908085,10.4746809 L38.8705532,4.90044681 Z M59.7308511,6.47068085 L61.357234,11.568617 L6.91793617,28.9321915 L5.29348936,23.8342553 L59.7308511,6.47068085 Z" id="Shape"></path>
            <path d="M26.1382979,81.2591277 C26.9824681,81.2591277 27.6678723,80.5737234 27.6678723,79.7295532 L27.6678723,42.0826596 C27.6678723,41.2365532 26.9824681,40.5530851 26.1382979,40.5530851 C25.2941277,40.5530851 24.6087234,41.2384894 24.6087234,42.0826596 L24.6087234,79.7295532 C24.6087234,80.5737234 25.2941277,81.2591277 26.1382979,81.2591277 Z" id="Shape"></path>
            <path d="M38.560766,81.2591277 C39.4068723,81.2591277 40.0903404,80.5737234 40.0903404,79.7295532 L40.0903404,42.0826596 C40.0903404,41.2365532 39.4068723,40.5530851 38.560766,40.5530851 C37.7165957,40.5530851 37.0311915,41.2384894 37.0311915,42.0826596 L37.0311915,79.7295532 C37.0311915,80.5737234 37.7165957,81.2591277 38.560766,81.2591277 Z" id="Shape"></path>
            <path d="M50.9812979,81.2591277 C51.8274043,81.2591277 52.5108723,80.5737234 52.5108723,79.7295532 L52.5108723,42.0826596 C52.5108723,41.2365532 51.8254681,40.5530851 50.9812979,40.5530851 C50.1371277,40.5530851 49.4536596,41.2384894 49.4536596,42.0826596 L49.4536596,79.7295532 C49.4536596,80.5737234 50.1390638,81.2591277 50.9812979,81.2591277 Z" id="Shape"></path>
        </g>
    </g>
</svg>
