<?xml version="1.0" encoding="UTF-8"?>
<svg width="299px" height="310px" viewBox="0 0 299 310" version="1.1" xmlns="http://www.w3.org/2000/svg" xmlns:xlink="http://www.w3.org/1999/xlink">
    <!-- Generator: Sketch 47 (45396) - http://www.bohemiancoding.com/sketch -->
    <title>logo</title>
    <desc>Created with Sketch.</desc>
    <defs></defs>
    <g id="Page-1" stroke="none" stroke-width="1" fill="none" fill-rule="evenodd">
        <g id="logo">
            <path d="M257.876712,249.041096 L257.876712,259.931507 C250.932289,270.982112 242.017268,280.663267 231.575342,288.493151 C203.013699,309.657534 171.575342,309.041096 153.082192,308.630137 C130.419617,307.782939 108.116669,302.695079 87.3287671,293.630137 C63.2785167,283.156872 41.5546936,267.999092 23.4246575,249.041096 C41.3337533,234.027382 61.5175583,221.958715 83.2191781,213.287671 C99.2465753,206.917808 121.027397,198.493151 150.821918,198.69863 C164.794521,198.69863 192.739726,199.315068 221.917808,216.986301 C235.833543,225.287223 248.037984,236.16661 257.876712,249.041096 Z" id="Shape" stroke="#006837"></path>
            <path d="M85.890411,253.150685 L85.890411,253.356164 L279.041096,260.30137 C280.952055,257.157534 282.636986,253.561644 284.938356,249.883562 L85.890411,253.150685 Z" id="Shape" fill="#006837" fill-rule="nonzero"></path>
            <path d="M19.109589,207.123288 L10.2739726,201.369863 C4.87727799,189.737928 1.73945976,177.186655 1.02739726,164.383562 C-1.02739726,129.246575 16.2328767,102.945205 26.5068493,87.5342466 C39.2481214,68.8481594 55.3417275,52.684884 73.9726027,39.8630137 C95.2822321,25.09163 119.305881,14.6860379 144.657534,9.24657534 C147.389044,32.2581219 146.487639,55.555967 141.986301,78.2876712 C138.69863,95.1369863 133.972603,118.150685 117.945205,143.013699 C110.547945,154.726027 95.1369863,177.945205 64.9315068,193.561644 C50.6519122,200.937546 35.1033971,205.539349 19.109589,207.123288 Z" id="Shape" stroke="#006837"></path>
            <path d="M178.150685,24.4520548 L187.39726,19.5205479 C200.23244,20.4775514 212.776122,23.8225331 224.383562,29.3835616 C256.232877,44.7945205 270.616438,72.739726 279.041096,89.1780822 C289.178986,109.414869 295.450756,131.366065 297.534247,153.90411 C300.042215,179.717071 297.387921,205.771055 289.726027,230.547945 C268.299378,221.738316 248.397085,209.602771 230.753425,194.589041 C217.60274,183.493151 199.931507,168.082192 185.958904,141.986301 C179.383562,129.657534 166.643836,105 167.671233,71.0958904 C168.361707,55.0483265 171.910489,39.2527649 178.150685,24.4520548 L178.150685,24.4520548 Z" id="Shape" stroke="#006837"></path>
            <polygon id="Shape" fill="#006837" fill-rule="nonzero" points="264.041096 173.630137 177.328767 0 165.636986 0 263.630137 173.835616"></polygon>
            <path d="M105.020548,57.5342466 L104.835616,57.5342466 L0.863013699,220.315068 C2.5890411,223.561644 4.84931507,226.849315 6.84246575,230.589041 L105.020548,57.5342466 Z" id="Shape" fill="#006837" fill-rule="nonzero"></path>
        </g>
    </g>
</svg>